<svg width="165" height="184" viewBox="0 0 165 184" fill="none">
    <g filter="url(#filter0_d_freedom)">
        <path d="M147.888 39.3772L92.105 7.64858C85.9511 4.14829 78.4051 4.16232 72.2642 7.68547L17.0473 39.3644C10.8326 42.9299 7 49.5473 7 56.7121V122.844C7 130.013 10.8374 136.634 17.0581 140.198L73.0294 172.263C79.2264 175.813 86.8463 175.79 93.021 172.201L148.05 140.219C154.21 136.639 158 130.052 158 122.927V56.7618C158 49.5704 154.139 42.9327 147.888 39.3772Z" fill="white"></path>
    </g>
    <g filter="url(#filter1_i_freedom)">
        <path d="M82.4612 48.0026L124.922 90.0011L82.4612 132L40 90.0011L82.4612 48.0026Z" fill="url(#paint0_radial_freedom)"></path>
    </g>
    <path d="M56.1877 85.5902C55.6105 86.2342 56.0675 87.2576 56.9323 87.2576H73.0095C73.5762 87.2576 74.1162 87.0173 74.4955 86.5962L82.1311 78.1199L90.6914 86.6725C91.0665 87.0472 91.5749 87.2576 92.105 87.2576H108.194C109.067 87.2576 109.521 86.2183 108.928 85.5781L83.6226 58.2575C82.8223 57.3934 81.4522 57.4046 80.6661 58.2816L56.1877 85.5902Z" fill="white"></path>
    <defs>
        <filter id="filter0_d_freedom" x="0" y="0.0332031" width="165" height="183.876" filterUnits="userSpaceOnUse" color-interpolation-filters="sRGB">
            <feFlood flood-opacity="0" result="BackgroundImageFix"></feFlood>
            <feColorMatrix in="SourceAlpha" type="matrix" values="0 0 0 0 0 0 0 0 0 0 0 0 0 0 0 0 0 0 127 0"></feColorMatrix>
            <feOffset dy="2"></feOffset>
            <feGaussianBlur stdDeviation="3.5"></feGaussianBlur>
            <feColorMatrix type="matrix" values="0 0 0 0 0.918812 0 0 0 0 0.937606 0 0 0 0 0.9564 0 0 0 1 0"></feColorMatrix>
            <feBlend mode="normal" in2="BackgroundImageFix" result="effect1_dropShadow"></feBlend>
            <feBlend mode="normal" in="SourceGraphic" in2="effect1_dropShadow" result="shape"></feBlend>
        </filter>
        <filter id="filter1_i_freedom" x="40" y="48.0026" width="84.9224" height="84.9974" filterUnits="userSpaceOnUse" color-interpolation-filters="sRGB">
            <feFlood flood-opacity="0" result="BackgroundImageFix"></feFlood>
            <feBlend mode="normal" in="SourceGraphic" in2="BackgroundImageFix" result="shape"></feBlend>
            <feColorMatrix in="SourceAlpha" type="matrix" values="0 0 0 0 0 0 0 0 0 0 0 0 0 0 0 0 0 0 127 0" result="hardAlpha"></feColorMatrix>
            <feOffset dy="1"></feOffset>
            <feGaussianBlur stdDeviation="1.5"></feGaussianBlur>
            <feComposite in2="hardAlpha" operator="arithmetic" k2="-1" k3="1"></feComposite>
            <feColorMatrix type="matrix" values="0 0 0 0 1 0 0 0 0 0.810252 0 0 0 0 0.362445 0 0 0 1 0"></feColorMatrix>
            <feBlend mode="normal" in2="shape" result="effect1_innerShadow"></feBlend>
        </filter>
        <radialGradient id="paint0_radial_freedom" cx="0" cy="0" r="1" gradientUnits="userSpaceOnUse" gradientTransform="translate(82.4612 90.0012) rotate(90) scale(41.9987 42.4612)">
            <stop stop-color="#FFDB87"></stop>
            <stop offset="1" stop-color="#FFBD21"></stop>
        </radialGradient>
    </defs>
</svg>