<svg xmlns="http://www.w3.org/2000/svg" width="38" height="38" viewBox="0 0 38 38" fill="none">
    <path d="M21.9 19.9C22.5 19.9 23.1 19.9 23.6 19.8C23.1 24.1 19.5 27.3 15.2 27.3C12.6 27.3 10.8 26 10.8 23.4C10.8 20.8 13 19.5 16.1 19.5C18.5 19.5 19.6 19.9 21.9 19.9ZM14.4 18.1C14.9 13.8 18.5 10.6 22.8 10.6C25.4 10.6 27.2 11.9 27.2 14.5C27.2 17.1 25 18.4 21.9 18.4C19.6 18.4 18.5 18 16.1 18C15.6 18 15 18 14.4 18.1ZM38 19C38 8.5 29.5 0 19 0C8.5 0 0 8.5 0 19C0 29.5 8.5 38 19 38C29.5 38 38 29.5 38 19Z" fill="white"/>
</svg>