<svg width="33" height="20" viewBox="0 0 33 20" fill="none" xmlns="http://www.w3.org/2000/svg">
<path d="M12.9023 1.19141C12.9023 1.26172 12.8984 1.33203 12.8906 1.40234C12.8906 1.47266 12.8867 1.53906 12.8789 1.60156C12.8555 1.64062 12.8086 1.65625 12.7383 1.64844C12.6758 1.64062 12.625 1.63672 12.5859 1.63672C12.5469 1.63672 12.5117 1.64453 12.4805 1.66016C12.457 1.66797 12.4453 1.69141 12.4453 1.73047C12.4453 1.77734 12.4492 1.80859 12.457 1.82422C12.3945 1.81641 12.3281 1.80859 12.2578 1.80078C12.1875 1.79297 12.125 1.76953 12.0703 1.73047C11.9609 1.75391 11.8555 1.78516 11.7539 1.82422C11.6602 1.86328 11.5664 1.90625 11.4727 1.95312C11.3789 2 11.2812 2.04297 11.1797 2.08203C11.0781 2.12109 10.9727 2.14453 10.8633 2.15234C10.793 2.23047 10.7031 2.28906 10.5938 2.32812C10.4844 2.36719 10.3711 2.40234 10.2539 2.43359C10.1367 2.46484 10.0273 2.50391 9.92578 2.55078C9.82422 2.58984 9.74219 2.65234 9.67969 2.73828C9.50781 2.75391 9.34375 2.79688 9.1875 2.86719C9.03125 2.9375 8.875 3.01172 8.71875 3.08984C8.57031 3.16797 8.41797 3.24219 8.26172 3.3125C8.10547 3.38281 7.9375 3.42969 7.75781 3.45312C7.71094 3.5 7.65234 3.53906 7.58203 3.57031C7.51953 3.60156 7.45312 3.63281 7.38281 3.66406C7.3125 3.6875 7.24609 3.71484 7.18359 3.74609C7.12109 3.77734 7.07031 3.82031 7.03125 3.875H7.00781C6.97656 3.875 6.95312 3.86719 6.9375 3.85156C6.92188 3.83594 6.89844 3.82812 6.86719 3.82812C6.84375 3.82812 6.82812 3.83203 6.82031 3.83984C6.63281 3.92578 6.44531 4.01562 6.25781 4.10938C6.07031 4.20312 5.875 4.29297 5.67188 4.37891C5.27344 4.54297 4.87109 4.70312 4.46484 4.85938C4.05859 5.01562 3.66797 5.20703 3.29297 5.43359C3.20703 5.74609 3.13672 6.06641 3.08203 6.39453C3.02734 6.71484 2.92969 7.02344 2.78906 7.32031V7.87109C2.71094 8.01953 2.66016 8.18359 2.63672 8.36328C2.61328 8.54297 2.60156 8.71484 2.60156 8.87891C2.60156 8.94141 2.60156 9 2.60156 9.05469C2.60938 9.10156 2.61328 9.15234 2.61328 9.20703C2.83984 9.14453 3.05859 9.07422 3.26953 8.99609C3.48828 8.91797 3.70703 8.84766 3.92578 8.78516C4.03516 8.74609 4.14453 8.71875 4.25391 8.70312C4.37109 8.6875 4.48438 8.66016 4.59375 8.62109C4.67969 8.59766 4.76953 8.56641 4.86328 8.52734C4.95703 8.48047 5.04688 8.4375 5.13281 8.39844C5.36719 8.29688 5.60547 8.20703 5.84766 8.12891C6.09766 8.05078 6.35156 7.99219 6.60938 7.95312C6.6875 7.89062 6.77344 7.83203 6.86719 7.77734C6.96094 7.72266 7.05469 7.69531 7.14844 7.69531C7.21875 7.69531 7.27734 7.70703 7.32422 7.73047C7.45703 7.65234 7.61328 7.58203 7.79297 7.51953C7.97266 7.45703 8.14062 7.43359 8.29688 7.44922C8.33594 7.39453 8.38281 7.35938 8.4375 7.34375C8.49219 7.32031 8.55078 7.30859 8.61328 7.30859C8.64453 7.30859 8.67188 7.3125 8.69531 7.32031C8.72656 7.32031 8.76172 7.32031 8.80078 7.32031C8.87891 7.26562 8.96484 7.22656 9.05859 7.20312C9.15234 7.17969 9.24609 7.16016 9.33984 7.14453C9.43359 7.12891 9.52344 7.10938 9.60938 7.08594C9.70312 7.05469 9.78516 7.00781 9.85547 6.94531C9.96484 6.95312 10.0508 6.98438 10.1133 7.03906C10.1836 7.09375 10.2422 7.16016 10.2891 7.23828C10.3359 7.31641 10.375 7.39844 10.4062 7.48438C10.4375 7.57031 10.4766 7.65234 10.5234 7.73047C10.5078 7.79297 10.4844 7.84375 10.4531 7.88281C10.4219 7.91406 10.3867 7.94531 10.3477 7.97656C10.3086 8.00781 10.2734 8.03906 10.2422 8.07031C10.2109 8.10156 10.1914 8.14453 10.1836 8.19922C9.91016 8.19922 9.64453 8.23828 9.38672 8.31641C9.13672 8.39453 8.88672 8.48438 8.63672 8.58594C8.39453 8.6875 8.14453 8.78516 7.88672 8.87891C7.63672 8.96484 7.37891 9.01953 7.11328 9.04297C7.07422 9.08203 7.02344 9.11328 6.96094 9.13672L6.78516 9.19531C6.73047 9.21094 6.67969 9.23438 6.63281 9.26562C6.58594 9.28906 6.55078 9.32812 6.52734 9.38281C6.48047 9.35938 6.42969 9.34766 6.375 9.34766C6.24219 9.34766 6.11328 9.38281 5.98828 9.45312C5.86328 9.52344 5.72266 9.55859 5.56641 9.55859C5.50391 9.55859 5.46094 9.55469 5.4375 9.54688C5.39844 9.61719 5.33984 9.66797 5.26172 9.69922C5.19141 9.73047 5.11328 9.75781 5.02734 9.78125C4.94922 9.79688 4.87109 9.82031 4.79297 9.85156C4.72266 9.88281 4.66797 9.9375 4.62891 10.0156C4.60547 10.0078 4.57812 10.0039 4.54688 10.0039H4.47656C4.35156 10.0039 4.20703 10.0273 4.04297 10.0742C3.88672 10.1133 3.77344 10.1914 3.70312 10.3086C3.64062 10.293 3.58594 10.2852 3.53906 10.2852C3.42969 10.2852 3.33203 10.3086 3.24609 10.3555C3.16016 10.3945 3.07422 10.4414 2.98828 10.4961L2.73047 10.6602C2.64453 10.7148 2.55078 10.7539 2.44922 10.7773C2.24609 11.0664 2.10547 11.3984 2.02734 11.7734C1.94922 12.1484 1.89062 12.5391 1.85156 12.9453C1.82031 13.3516 1.78906 13.7539 1.75781 14.1523C1.72656 14.5586 1.66406 14.9297 1.57031 15.2656C1.61719 15.3906 1.65234 15.5234 1.67578 15.6641C1.69922 15.8047 1.71875 15.9453 1.73438 16.0859C1.75 16.2344 1.76562 16.3828 1.78125 16.5312C1.79688 16.6797 1.82422 16.8203 1.86328 16.9531C1.90234 17.1172 1.97656 17.2617 2.08594 17.3867C2.20312 17.5195 2.28516 17.668 2.33203 17.832C2.37109 17.8398 2.41016 17.8438 2.44922 17.8438C2.49609 17.8516 2.54297 17.8555 2.58984 17.8555C2.87109 17.8555 3.11719 17.8008 3.32812 17.6914C3.54688 17.582 3.75 17.4453 3.9375 17.2812C4.125 17.125 4.30469 16.9531 4.47656 16.7656C4.65625 16.5859 4.84766 16.4258 5.05078 16.2852H5.27344C5.32812 16.2227 5.375 16.1562 5.41406 16.0859C5.45312 16.0156 5.49609 15.9492 5.54297 15.8867C5.58984 15.8242 5.64453 15.7695 5.70703 15.7227C5.76953 15.6836 5.84766 15.6562 5.94141 15.6406C5.96484 15.5234 6.01953 15.4336 6.10547 15.3711C6.19141 15.3086 6.25 15.2148 6.28125 15.0898C6.29688 15.0977 6.31641 15.1016 6.33984 15.1016C6.40234 15.1016 6.44922 15.0859 6.48047 15.0547L6.65625 14.8906C6.71875 14.8281 6.78516 14.7656 6.85547 14.7031C6.93359 14.6484 7.00781 14.5938 7.07812 14.5391C7.30469 14.375 7.53125 14.2109 7.75781 14.0469C7.98438 13.8906 8.19141 13.707 8.37891 13.4961C8.38672 13.5039 8.39844 13.5078 8.41406 13.5078C8.47656 13.5078 8.51953 13.4883 8.54297 13.4492C8.56641 13.4102 8.62109 13.3984 8.70703 13.4141C8.75391 13.3438 8.79688 13.2734 8.83594 13.2031C8.875 13.125 8.90625 13.043 8.92969 12.957L9.30469 13.0039C9.42969 13.0195 9.55469 13.0273 9.67969 13.0273C9.71875 13.0273 9.75391 13.0273 9.78516 13.0273C9.82422 13.0195 9.85938 13.0078 9.89062 12.9922C9.98438 13.1406 10.0352 13.3008 10.043 13.4727C10.0508 13.6367 10.0703 13.8008 10.1016 13.9648C10.0859 13.9648 10.0742 13.9648 10.0664 13.9648C10.0664 13.957 10.0586 13.9531 10.043 13.9531C10.0039 13.9531 9.96484 13.9688 9.92578 14C9.89453 14.0234 9.85938 14.0547 9.82031 14.0938L9.70312 14.2109C9.66406 14.25 9.62891 14.2812 9.59766 14.3047C9.51172 14.3594 9.42188 14.4062 9.32812 14.4453C9.23438 14.4922 9.14453 14.5391 9.05859 14.5859C8.97266 14.6328 8.89062 14.6875 8.8125 14.75C8.73438 14.8203 8.67188 14.9062 8.625 15.0078C8.46875 15.0703 8.31641 15.1367 8.16797 15.207C8.02734 15.2773 7.89062 15.3516 7.75781 15.4297C7.71875 15.4688 7.68359 15.5078 7.65234 15.5469C7.62109 15.5859 7.59766 15.6289 7.58203 15.6758C7.37109 15.7461 7.19531 15.8516 7.05469 15.9922C6.92188 16.1328 6.78516 16.2852 6.64453 16.4492L6.63281 16.4375C6.57812 16.4375 6.54297 16.457 6.52734 16.4961C6.51953 16.5352 6.47656 16.5469 6.39844 16.5312C6.25 16.6953 6.09375 16.8477 5.92969 16.9883C5.76562 17.1289 5.59766 17.2695 5.42578 17.4102C5.25391 17.5508 5.08203 17.6914 4.91016 17.832C4.73828 17.9805 4.57812 18.1367 4.42969 18.3008C4.32812 18.332 4.23047 18.3711 4.13672 18.418C4.04297 18.4648 3.97266 18.5352 3.92578 18.6289H3.89062C3.80469 18.6289 3.74219 18.6484 3.70312 18.6875C3.67188 18.7266 3.63281 18.7773 3.58594 18.8398C3.42188 18.8789 3.25391 18.9219 3.08203 18.9688C2.91016 19.0156 2.73438 19.0391 2.55469 19.0391C2.42969 19.0391 2.30859 19.0156 2.19141 18.9688C2.08203 18.9219 1.97266 18.8594 1.86328 18.7812C1.76172 18.7109 1.66406 18.6328 1.57031 18.5469C1.48438 18.4609 1.40234 18.3789 1.32422 18.3008C1.27734 18.1445 1.21484 17.9805 1.13672 17.8086C1.06641 17.6445 1.03125 17.4844 1.03125 17.3281C1.03125 17.2891 1.03516 17.25 1.04297 17.2109C1.05859 17.1797 1.06641 17.1484 1.06641 17.1172C1.06641 17.0625 1.04688 17.0391 1.00781 17.0469C0.976562 17.0547 0.953125 17.0352 0.9375 16.9883C0.921875 16.9102 0.910156 16.8203 0.902344 16.7188C0.902344 16.625 0.894531 16.5352 0.878906 16.4492C0.855469 16.2695 0.824219 16.0859 0.785156 15.8984C0.753906 15.7109 0.71875 15.5273 0.679688 15.3477C0.710938 15.332 0.734375 15.3047 0.75 15.2656C0.773438 15.2344 0.796875 15.2031 0.820312 15.1719C0.796875 15.1094 0.773438 15.0391 0.75 14.9609C0.734375 14.8906 0.726562 14.8164 0.726562 14.7383C0.726562 14.582 0.785156 14.4648 0.902344 14.3867C0.902344 14.332 0.886719 14.2891 0.855469 14.2578C0.832031 14.2344 0.820312 14.1914 0.820312 14.1289C0.820312 14.1133 0.824219 14.0703 0.832031 14C0.847656 13.9219 0.863281 13.8359 0.878906 13.7422C0.902344 13.6484 0.921875 13.5586 0.9375 13.4727C0.953125 13.3867 0.964844 13.3281 0.972656 13.2969C1.02734 12.9375 1.07422 12.5859 1.11328 12.2422C1.15234 11.8906 1.20703 11.5391 1.27734 11.1875C1.19922 11.125 1.09766 11.0781 0.972656 11.0469C0.855469 11.0078 0.773438 10.957 0.726562 10.8945C0.6875 10.8398 0.65625 10.7695 0.632812 10.6836C0.609375 10.5977 0.597656 10.5234 0.597656 10.4609C0.597656 10.2344 0.6875 10.0547 0.867188 9.92188C1.04688 9.78125 1.23828 9.69922 1.44141 9.67578C1.54297 9.40234 1.61719 9.125 1.66406 8.84375C1.71875 8.55469 1.76172 8.26562 1.79297 7.97656L1.88672 7.09766C1.91797 6.80078 1.96484 6.50781 2.02734 6.21875H1.95703C1.80078 6.21875 1.64844 6.24219 1.5 6.28906C1.35156 6.33594 1.19922 6.35938 1.04297 6.35938H1.01953C0.792969 6.17969 0.679688 5.96484 0.679688 5.71484C0.679688 5.56641 0.710938 5.41797 0.773438 5.26953C0.898438 5.22266 1.01172 5.16016 1.11328 5.08203C1.21484 5.00391 1.31641 4.92578 1.41797 4.84766C1.52734 4.76172 1.63672 4.6875 1.74609 4.625C1.85547 4.5625 1.97656 4.52344 2.10938 4.50781C2.125 4.28125 2.16406 4.05469 2.22656 3.82812C2.28906 3.60156 2.32031 3.375 2.32031 3.14844C2.32031 3.10156 2.31641 3.05469 2.30859 3.00781C2.30859 2.96094 2.30078 2.91406 2.28516 2.86719C2.33984 2.79688 2.375 2.72266 2.39062 2.64453C2.41406 2.56641 2.42578 2.48438 2.42578 2.39844C2.42578 2.30469 2.41797 2.21484 2.40234 2.12891C2.39453 2.03516 2.38281 1.94531 2.36719 1.85938C2.4375 1.82812 2.49219 1.79688 2.53125 1.76562C2.57031 1.72656 2.60547 1.69141 2.63672 1.66016C2.67578 1.62891 2.72266 1.60156 2.77734 1.57812C2.83203 1.55469 2.91016 1.54297 3.01172 1.54297C3.16016 1.54297 3.28516 1.57422 3.38672 1.63672C3.49609 1.69141 3.58984 1.76562 3.66797 1.85938C3.74609 1.95312 3.8125 2.05859 3.86719 2.17578C3.92969 2.29297 3.98828 2.41016 4.04297 2.52734C4.02734 2.61328 3.99219 2.67578 3.9375 2.71484C3.88281 2.75391 3.83594 2.80469 3.79688 2.86719C3.8125 2.99219 3.82812 3.11328 3.84375 3.23047C3.85938 3.33984 3.85938 3.45703 3.84375 3.58203C3.92188 3.62109 3.99609 3.64062 4.06641 3.64062C4.18359 3.64062 4.28906 3.60938 4.38281 3.54688C4.48438 3.48438 4.55469 3.39844 4.59375 3.28906H4.61719C4.64062 3.28906 4.66016 3.29688 4.67578 3.3125C4.69922 3.32812 4.72656 3.33594 4.75781 3.33594H4.80469C4.89062 3.25781 4.98438 3.19922 5.08594 3.16016C5.1875 3.11328 5.29297 3.07031 5.40234 3.03125C5.51172 2.99219 5.61719 2.95312 5.71875 2.91406C5.82812 2.86719 5.92969 2.80859 6.02344 2.73828C6.07031 2.76172 6.12109 2.77344 6.17578 2.77344C6.25391 2.77344 6.32812 2.75781 6.39844 2.72656C6.47656 2.69531 6.55078 2.66406 6.62109 2.63281C6.69141 2.59375 6.76562 2.55859 6.84375 2.52734C6.92969 2.49609 7.01953 2.48047 7.11328 2.48047C7.12891 2.48047 7.14844 2.48438 7.17188 2.49219C7.19531 2.49219 7.21484 2.49219 7.23047 2.49219C7.28516 2.49219 7.31641 2.47266 7.32422 2.43359C7.33203 2.39453 7.33203 2.35938 7.32422 2.32812C7.57422 2.26562 7.78906 2.19531 7.96875 2.11719C8.15625 2.03125 8.36328 1.93359 8.58984 1.82422C8.58984 1.81641 8.59766 1.8125 8.61328 1.8125C8.63672 1.8125 8.65234 1.82422 8.66016 1.84766C8.66797 1.87109 8.67188 1.89063 8.67188 1.90625C8.71875 1.88281 8.74219 1.84375 8.74219 1.78906C8.75 1.73437 8.76953 1.6875 8.80078 1.64844C8.83203 1.65625 8.875 1.66016 8.92969 1.66016C9 1.66016 9.07031 1.64453 9.14062 1.61328C9.21875 1.58203 9.29297 1.54687 9.36328 1.50781C9.43359 1.46875 9.50391 1.43359 9.57422 1.40234C9.64453 1.37109 9.71484 1.35547 9.78516 1.35547C9.84766 1.35547 9.89844 1.37109 9.9375 1.40234C9.98438 1.37891 10.0312 1.34766 10.0781 1.30859C10.125 1.26172 10.1758 1.23828 10.2305 1.23828C10.2461 1.23828 10.2578 1.24219 10.2656 1.25C10.2812 1.25781 10.2969 1.26562 10.3125 1.27344C10.3516 1.23438 10.3867 1.20312 10.418 1.17969C10.457 1.15625 10.4766 1.11719 10.4766 1.0625C10.7656 1.03125 11.0312 0.96875 11.2734 0.875C11.5234 0.773437 11.7617 0.640625 11.9883 0.476562C12.0742 0.492187 12.1562 0.511719 12.2344 0.535156C12.3203 0.550781 12.4062 0.558594 12.4922 0.558594C12.5391 0.644531 12.582 0.730469 12.6211 0.816406C12.6602 0.902344 12.7461 0.941406 12.8789 0.933594C12.8867 0.972656 12.8906 1.01562 12.8906 1.0625C12.8984 1.10938 12.9023 1.15234 12.9023 1.19141ZM21.832 3.16016C21.7852 3.23828 21.75 3.32031 21.7266 3.40625C21.7109 3.49219 21.6992 3.57812 21.6914 3.66406H21.6094C21.5469 3.66406 21.4922 3.65625 21.4453 3.64062C21.3984 3.61719 21.3438 3.59766 21.2812 3.58203C21.3125 3.87891 21.332 4.17969 21.3398 4.48438C21.3477 4.78906 21.3516 5.08984 21.3516 5.38672C21.3516 5.76172 21.3477 6.13672 21.3398 6.51172C21.332 6.87891 21.3281 7.25 21.3281 7.625C21.3281 7.80469 21.3164 7.98438 21.293 8.16406C21.2773 8.33594 21.2305 8.50391 21.1523 8.66797C21.168 8.80078 21.1797 8.92969 21.1875 9.05469C21.1953 9.17188 21.1992 9.29688 21.1992 9.42969C21.1992 9.79688 21.1758 10.1641 21.1289 10.5312C21.0898 10.8906 21.0391 11.25 20.9766 11.6094C20.9531 11.75 20.9297 11.8945 20.9062 12.043C20.8906 12.1836 20.8633 12.3203 20.8242 12.4531C20.8086 12.4922 20.7852 12.5312 20.7539 12.5703C20.7305 12.6094 20.7109 12.6484 20.6953 12.6875C20.6016 12.8906 20.4961 13.0938 20.3789 13.2969C20.2695 13.4922 20.1367 13.6719 19.9805 13.8359C19.8633 13.8438 19.75 13.875 19.6406 13.9297C19.5312 13.9844 19.4297 14.0117 19.3359 14.0117C19.25 14.0117 19.1797 13.9688 19.125 13.8828L19.0078 13.9297C18.9688 13.9453 18.9258 13.957 18.8789 13.9648C18.6133 13.8555 18.3594 13.7227 18.1172 13.5664C17.8828 13.4102 17.6875 13.207 17.5312 12.957H17.4844C17.4141 12.957 17.3633 12.9414 17.332 12.9102C17.293 12.8711 17.25 12.8242 17.2031 12.7695C17.1641 12.707 17.1289 12.6523 17.0977 12.6055C17.0039 12.457 16.9023 12.3086 16.793 12.1602C16.6836 12.0117 16.5547 11.8867 16.4062 11.7852C16.3438 11.5508 16.25 11.3516 16.125 11.1875C16 11.0156 15.8711 10.832 15.7383 10.6367C15.6367 10.2461 15.4492 9.88281 15.1758 9.54688C15.2148 9.50781 15.2344 9.48047 15.2344 9.46484C15.2344 9.42578 15.2188 9.39453 15.1875 9.37109C15.1641 9.33984 15.1523 9.30859 15.1523 9.27734C15.1523 9.24609 15.1602 9.22266 15.1758 9.20703C15.0742 9.09766 14.9883 8.97656 14.918 8.84375C14.8555 8.70312 14.793 8.5625 14.7305 8.42188C14.6758 8.28125 14.6133 8.14062 14.543 8C14.4805 7.85938 14.4023 7.73047 14.3086 7.61328C14.2227 7.66797 14.168 7.73438 14.1445 7.8125C14.1289 7.89062 14.1211 7.97266 14.1211 8.05859C14.1211 8.12109 14.1211 8.18359 14.1211 8.24609C14.1289 8.30859 14.1328 8.37109 14.1328 8.43359C14.1328 8.58984 14.1133 8.74219 14.0742 8.89062C14.043 9.03906 14.0195 9.19141 14.0039 9.34766C13.9961 9.45703 13.9922 9.57812 13.9922 9.71094C14 9.84375 13.9961 9.97656 13.9805 10.1094C13.9727 10.2422 13.9531 10.3711 13.9219 10.4961C13.8906 10.6211 13.8359 10.7266 13.7578 10.8125C13.7109 11.2578 13.6523 11.7031 13.582 12.1484C13.5117 12.5938 13.4453 13.0391 13.3828 13.4844C13.3672 13.5625 13.3516 13.6602 13.3359 13.7773C13.3203 13.8945 13.3008 14.0117 13.2773 14.1289C13.2617 14.2539 13.2461 14.3711 13.2305 14.4805C13.2227 14.5977 13.2188 14.6914 13.2188 14.7617C13.2188 14.8398 13.2383 14.9141 13.2773 14.9844C13.3164 15.0625 13.3359 15.1367 13.3359 15.207C13.3359 15.2617 13.3164 15.293 13.2773 15.3008C13.2461 15.3164 13.2266 15.3477 13.2188 15.3945C13.2734 15.5664 13.3008 15.7617 13.3008 15.9805C13.3008 16.043 13.2969 16.1055 13.2891 16.168C13.2812 16.2383 13.2695 16.3047 13.2539 16.3672C13.2383 16.4062 13.2109 16.4414 13.1719 16.4727C13.1328 16.5117 13.1133 16.5469 13.1133 16.5781C13.1133 16.6094 13.1289 16.6328 13.1602 16.6484C13.1133 16.6953 13.0547 16.7266 12.9844 16.7422C12.9141 16.7578 12.8633 16.8008 12.832 16.8711C12.7539 16.8086 12.6758 16.75 12.5977 16.6953C12.5195 16.6484 12.4453 16.5938 12.375 16.5312L12.3398 16.5195C12.2852 16.5195 12.2383 16.5352 12.1992 16.5664C12.168 16.6055 12.125 16.625 12.0703 16.625C12.0547 16.625 12.0391 16.6211 12.0234 16.6133C12.0156 16.6133 12.0039 16.6133 11.9883 16.6133L11.918 16.3086C11.8945 16.207 11.8633 16.1133 11.8242 16.0273C11.8867 15.8633 11.9258 15.6758 11.9414 15.4648C11.9648 15.2617 11.9883 15.0547 12.0117 14.8438C12.0352 14.6328 12.0703 14.4297 12.1172 14.2344C12.1641 14.0469 12.25 13.8828 12.375 13.7422C12.375 13.6797 12.3516 13.6367 12.3047 13.6133C12.2656 13.5898 12.2461 13.5391 12.2461 13.4609C12.2461 13.4453 12.25 13.418 12.2578 13.3789C12.2734 13.3398 12.2852 13.2969 12.293 13.25C12.3086 13.2031 12.3203 13.1602 12.3281 13.1211C12.3438 13.0742 12.3555 13.0391 12.3633 13.0156C12.4258 12.7109 12.4727 12.3984 12.5039 12.0781C12.543 11.7578 12.6406 11.4609 12.7969 11.1875C12.7891 11.1562 12.7852 11.1094 12.7852 11.0469C12.7852 10.9141 12.7969 10.7852 12.8203 10.6602C12.8516 10.5352 12.8672 10.4062 12.8672 10.2734C12.8672 10.1641 12.8555 10.0625 12.832 9.96875C12.8555 9.88281 12.8867 9.80078 12.9258 9.72266C12.9727 9.63672 12.9961 9.55078 12.9961 9.46484C12.9961 9.38672 12.9688 9.33203 12.9141 9.30078C12.9531 9.26953 12.9766 9.23438 12.9844 9.19531C13 9.15625 13.0078 9.11719 13.0078 9.07812C13.0156 9.03906 13.0234 9.00391 13.0312 8.97266C13.0469 8.93359 13.0781 8.90234 13.125 8.87891C13.1172 8.80078 13.1094 8.72656 13.1016 8.65625C13.1016 8.58594 13.1016 8.51172 13.1016 8.43359C13.1016 8.14453 13.1172 7.85938 13.1484 7.57812C13.1797 7.28906 13.1953 6.99609 13.1953 6.69922C13.1953 6.41016 13.1719 6.12891 13.125 5.85547L13.2539 5.59766C13.1758 5.53516 13.125 5.43359 13.1016 5.29297C13.0781 5.15234 13.0625 5 13.0547 4.83594C13.0469 4.67188 13.0312 4.51172 13.0078 4.35547C12.9922 4.19141 12.9492 4.05859 12.8789 3.95703V3.85156C12.8789 3.72656 12.8711 3.60547 12.8555 3.48828C12.8398 3.37109 12.832 3.25391 12.832 3.13672V3.03125C12.8711 3.01562 12.8984 2.98828 12.9141 2.94922C12.9375 2.91016 12.9531 2.87109 12.9609 2.83203H13.0078C13.1016 2.83203 13.1953 2.82422 13.2891 2.80859C13.3828 2.79297 13.4766 2.78516 13.5703 2.78516H13.7227C13.8164 2.85547 13.8984 2.9375 13.9688 3.03125C14.0391 3.125 14.125 3.21094 14.2266 3.28906V3.5C14.2969 3.59375 14.3516 3.69531 14.3906 3.80469C14.4297 3.91406 14.4688 4.02734 14.5078 4.14453C14.5547 4.26172 14.6016 4.375 14.6484 4.48438C14.6953 4.59375 14.7617 4.6875 14.8477 4.76562C14.832 4.84375 14.8242 4.90625 14.8242 4.95312C14.8242 5.05469 14.832 5.15625 14.8477 5.25781C14.8711 5.35938 14.8867 5.45703 14.8945 5.55078C14.9258 5.58984 14.9531 5.64062 14.9766 5.70312C15 5.75781 15.0391 5.79297 15.0938 5.80859C15.1328 6.11328 15.2109 6.40234 15.3281 6.67578C15.4531 6.94922 15.543 7.23438 15.5977 7.53125C15.6602 7.59375 15.707 7.67188 15.7383 7.76562C15.7695 7.85156 15.8008 7.9375 15.832 8.02344C15.8711 8.10938 15.9102 8.19141 15.9492 8.26953C15.9961 8.33984 16.0625 8.39062 16.1484 8.42188C16.1953 8.60938 16.2539 8.79688 16.3242 8.98438C16.3945 9.17188 16.5039 9.33203 16.6523 9.46484C16.6523 9.62109 16.6758 9.75781 16.7227 9.875C16.7773 9.98438 16.8359 10.0898 16.8984 10.1914C16.9688 10.2852 17.0312 10.3789 17.0859 10.4727C17.1406 10.5664 17.1758 10.668 17.1914 10.7773C17.3008 10.9414 17.4258 11.0938 17.5664 11.2344C17.7148 11.375 17.8633 11.5117 18.0117 11.6445C18.168 11.7695 18.3203 11.8984 18.4688 12.0312C18.6172 12.1641 18.7539 12.3047 18.8789 12.4531C18.9648 12.4609 19.0352 12.4805 19.0898 12.5117C19.1523 12.5352 19.2227 12.5547 19.3008 12.5703C19.3555 12.5312 19.3984 12.4844 19.4297 12.4297C19.4688 12.3672 19.5039 12.3047 19.5352 12.2422C19.5664 12.1797 19.5977 12.1211 19.6289 12.0664C19.668 12.0039 19.7148 11.9492 19.7695 11.9023C19.7695 11.8867 19.7656 11.875 19.7578 11.8672C19.7578 11.8516 19.7578 11.8359 19.7578 11.8203C19.7578 11.7344 19.7695 11.668 19.793 11.6211C19.8242 11.5664 19.8594 11.5078 19.8984 11.4453V11.1406C19.9609 11.0234 20.0039 10.8984 20.0273 10.7656C20.0508 10.6328 20.0625 10.5 20.0625 10.3672C20.0625 10.2578 20.0586 10.1484 20.0508 10.0391C20.043 9.92188 20.0391 9.80469 20.0391 9.6875C20.0391 9.61719 20.043 9.54688 20.0508 9.47656C20.0586 9.39844 20.0742 9.32812 20.0977 9.26562C20.1133 9.25 20.1406 9.22656 20.1797 9.19531C20.2188 9.15625 20.2383 9.13281 20.2383 9.125C20.2383 9.08594 20.2266 9.04688 20.2031 9.00781C20.1797 8.96875 20.168 8.92969 20.168 8.89062C20.168 8.83594 20.1914 8.79297 20.2383 8.76172V8.69141C20.2383 8.65234 20.2305 8.61719 20.2148 8.58594C20.207 8.54688 20.1836 8.51953 20.1445 8.50391C20.1836 8.45703 20.2109 8.40234 20.2266 8.33984C20.2422 8.26953 20.25 8.19922 20.25 8.12891C20.2578 8.05078 20.2578 7.97656 20.25 7.90625C20.25 7.83594 20.25 7.76953 20.25 7.70703C20.25 7.63672 20.2539 7.5625 20.2617 7.48438C20.2695 7.40625 20.3008 7.33984 20.3555 7.28516C20.332 7.19141 20.3164 7.10156 20.3086 7.01562C20.3008 6.92188 20.2969 6.82812 20.2969 6.73438C20.2969 6.57031 20.3047 6.40625 20.3203 6.24219C20.3359 6.07812 20.3438 5.91016 20.3438 5.73828C20.3438 5.67578 20.3398 5.61328 20.332 5.55078C20.3242 5.48047 20.3203 5.41406 20.3203 5.35156C20.3203 5.28906 20.332 5.26172 20.3555 5.26953C20.3867 5.26953 20.4023 5.25 20.4023 5.21094C20.4023 5.15625 20.3945 5.10156 20.3789 5.04688C20.3711 4.99219 20.3633 4.9375 20.3555 4.88281C20.3398 4.75 20.3281 4.61719 20.3203 4.48438C20.3125 4.34375 20.3086 4.20312 20.3086 4.0625C20.3086 3.97656 20.3086 3.89062 20.3086 3.80469C20.3164 3.71094 20.332 3.62109 20.3555 3.53516C20.3086 3.46484 20.2773 3.39844 20.2617 3.33594C20.2539 3.26562 20.2461 3.20312 20.2383 3.14844L20.2148 2.97266C20.207 2.91016 20.1836 2.84766 20.1445 2.78516C20.1367 2.77734 20.1328 2.75391 20.1328 2.71484C20.1328 2.65234 20.1484 2.60547 20.1797 2.57422C20.1406 2.44141 20.0859 2.3125 20.0156 2.1875C19.9531 2.0625 19.9141 1.92578 19.8984 1.77734C19.8125 1.73047 19.7461 1.65625 19.6992 1.55469C19.6602 1.44531 19.6406 1.34766 19.6406 1.26172C19.6406 1.16016 19.668 1.0625 19.7227 0.96875C19.7773 0.867187 19.8633 0.816406 19.9805 0.816406C20.0273 0.816406 20.0703 0.832031 20.1094 0.863281C20.1562 0.886719 20.1992 0.917969 20.2383 0.957031C20.2852 0.988281 20.3281 1.01953 20.3672 1.05078C20.4141 1.07422 20.4609 1.08594 20.5078 1.08594C20.5391 1.08594 20.5859 1.07812 20.6484 1.0625C20.7344 1.17969 20.8203 1.28906 20.9062 1.39062C21 1.48438 21.0938 1.58203 21.1875 1.68359C21.1875 1.81641 21.2109 1.9375 21.2578 2.04688C21.3047 2.15625 21.3555 2.26172 21.4102 2.36328C21.4648 2.45703 21.5117 2.55078 21.5508 2.64453C21.5977 2.73828 21.6172 2.83984 21.6094 2.94922C21.625 3.00391 21.6562 3.04297 21.7031 3.06641C21.75 3.08984 21.793 3.12109 21.832 3.16016ZM32.2852 13.5664C32.2852 13.6445 32.2812 13.7031 32.2734 13.7422C32.2344 13.7578 32.2031 13.7812 32.1797 13.8125C32.1562 13.8359 32.1172 13.8438 32.0625 13.8359C32.0469 13.9531 32.0078 14.0508 31.9453 14.1289C31.8828 14.207 31.8164 14.2773 31.7461 14.3398C31.6836 14.4102 31.6211 14.4805 31.5586 14.5508C31.4961 14.6289 31.457 14.7266 31.4414 14.8438C31.3242 14.9062 31.207 14.9883 31.0898 15.0898C30.9805 15.1992 30.8828 15.2734 30.7969 15.3125C30.7344 15.3438 30.668 15.3672 30.5977 15.3828C30.5273 15.4062 30.457 15.4336 30.3867 15.4648C30.1602 15.5664 29.9258 15.6719 29.6836 15.7812C29.4492 15.8906 29.2031 15.9453 28.9453 15.9453H28.8633C28.832 15.9766 28.793 15.9961 28.7461 16.0039C28.6992 16.0195 28.6523 16.0312 28.6055 16.0391C28.5586 16.0469 28.5117 16.0586 28.4648 16.0742C28.418 16.0898 28.3828 16.1133 28.3594 16.1445C28.2734 16.1133 28.1797 16.0977 28.0781 16.0977H27.9961C27.8633 16.1289 27.7383 16.1523 27.6211 16.168C27.5039 16.1836 27.3789 16.1914 27.2461 16.1914C27.0117 16.1914 26.7773 16.1758 26.543 16.1445C26.3086 16.1133 26.0742 16.0859 25.8398 16.0625C25.6914 15.9453 25.5703 15.7969 25.4766 15.6172C25.3828 15.4453 25.3359 15.2617 25.3359 15.0664C25.3359 14.918 25.3672 14.7773 25.4297 14.6445C25.4922 14.5195 25.5742 14.4062 25.6758 14.3047H25.7109C25.7812 14.3047 25.8516 14.2891 25.9219 14.2578C26 14.2266 26.0742 14.2109 26.1445 14.2109C26.2227 14.2109 26.2852 14.2422 26.332 14.3047C26.3867 14.3672 26.4258 14.4414 26.4492 14.5273C26.4805 14.6133 26.5 14.6992 26.5078 14.7852C26.5156 14.8789 26.5195 14.9531 26.5195 15.0078C26.6055 15.0469 26.6953 15.0703 26.7891 15.0781C26.8906 15.0859 26.9922 15.0898 27.0938 15.0898C27.1953 15.0898 27.3086 15.082 27.4336 15.0664C27.5586 15.0586 27.6836 15.0391 27.8086 15.0078C27.9414 14.9844 28.0664 14.9531 28.1836 14.9141C28.3086 14.875 28.4141 14.8242 28.5 14.7617C28.9297 14.7227 29.3086 14.625 29.6367 14.4688C29.9648 14.3125 30.3125 14.1289 30.6797 13.918C30.6953 13.832 30.7266 13.7656 30.7734 13.7188C30.8281 13.6641 30.8555 13.5859 30.8555 13.4844C30.8555 13.4688 30.8516 13.4531 30.8438 13.4375C30.8438 13.4141 30.8438 13.3945 30.8438 13.3789C30.6875 13.1836 30.5234 13.0117 30.3516 12.8633C30.1875 12.7148 29.9727 12.6172 29.707 12.5703C29.6758 12.5 29.625 12.4492 29.5547 12.418C29.4844 12.3789 29.4102 12.3438 29.332 12.3125C29.2539 12.2812 29.1797 12.25 29.1094 12.2188C29.0391 12.1797 28.9883 12.1172 28.957 12.0312C28.7461 11.9922 28.5273 11.9453 28.3008 11.8906C28.082 11.8281 27.8945 11.7188 27.7383 11.5625C27.6133 11.5547 27.4922 11.5312 27.375 11.4922C27.2656 11.4453 27.1562 11.4023 27.0469 11.3633C26.9375 11.3164 26.8242 11.2773 26.707 11.2461C26.5898 11.207 26.4688 11.1875 26.3438 11.1875C26.3125 11.1328 26.2695 11.0898 26.2148 11.0586C26.1602 11.0273 26.0977 11 26.0273 10.9766C25.9648 10.9531 25.9023 10.9297 25.8398 10.9062C25.7852 10.875 25.7422 10.832 25.7109 10.7773C25.6797 10.7852 25.6562 10.8008 25.6406 10.8242C25.625 10.8477 25.5977 10.8594 25.5586 10.8594H25.5117C25.4961 10.8125 25.4648 10.7812 25.418 10.7656C25.3711 10.7422 25.3438 10.6992 25.3359 10.6367C25.1953 10.6289 25.0664 10.6016 24.9492 10.5547C24.8398 10.5078 24.7344 10.457 24.6328 10.4023C24.5391 10.3398 24.4414 10.2812 24.3398 10.2266C24.2383 10.1719 24.125 10.1289 24 10.0977C23.9219 10.0352 23.8477 9.96875 23.7773 9.89844C23.7148 9.82031 23.6328 9.78125 23.5312 9.78125C23.5078 9.78125 23.4648 9.78906 23.4023 9.80469C23.3867 9.66406 23.3281 9.56641 23.2266 9.51172C23.125 9.44922 23.0156 9.39453 22.8984 9.34766C22.8203 9.14453 22.7148 8.96484 22.582 8.80859C22.4492 8.65234 22.3047 8.50781 22.1484 8.375C22.1641 8.32812 22.1719 8.29297 22.1719 8.26953C22.1719 8.19141 22.1523 8.125 22.1133 8.07031C22.0742 8.00781 22.0312 7.95703 21.9844 7.91797C21.875 7.56641 21.8203 7.22266 21.8203 6.88672C21.8203 6.41797 21.9258 5.98438 22.1367 5.58594C22.3398 5.17969 22.6641 4.875 23.1094 4.67188C23.1172 4.60938 23.1367 4.55469 23.168 4.50781C23.207 4.46094 23.2305 4.40625 23.2383 4.34375C23.3086 4.34375 23.3633 4.32812 23.4023 4.29688C23.4414 4.26562 23.4766 4.23438 23.5078 4.20312C23.5469 4.16406 23.5859 4.12891 23.625 4.09766C23.6641 4.06641 23.7148 4.04688 23.7773 4.03906C24.0742 3.78125 24.3906 3.57422 24.7266 3.41797C25.0625 3.25391 25.4062 3.08594 25.7578 2.91406C25.8281 2.88281 25.8867 2.82422 25.9336 2.73828H26.0039C26.082 2.73828 26.1406 2.72266 26.1797 2.69141C26.2266 2.65234 26.293 2.64062 26.3789 2.65625C26.4102 2.60938 26.4492 2.57812 26.4961 2.5625C26.5508 2.54688 26.6016 2.53516 26.6484 2.52734C26.7031 2.51172 26.7539 2.49219 26.8008 2.46875C26.8477 2.44531 26.8789 2.41016 26.8945 2.36328H26.9766C27.1094 2.36328 27.2383 2.34375 27.3633 2.30469C27.4883 2.25781 27.6133 2.20703 27.7383 2.15234H27.8203C27.9766 2.15234 28.1211 2.125 28.2539 2.07031C28.3945 2.00781 28.543 1.96484 28.6992 1.94141C28.7617 1.92578 28.8242 1.92187 28.8867 1.92969C28.9492 1.9375 29.0117 1.94141 29.0742 1.94141C29.1133 1.94141 29.1602 1.9375 29.2148 1.92969C29.2695 1.92187 29.3086 1.89844 29.332 1.85938H29.3555C29.4023 1.85938 29.4297 1.875 29.4375 1.90625C29.4453 1.9375 29.4688 1.95312 29.5078 1.95312C29.5625 1.95312 29.6172 1.94531 29.6719 1.92969C29.7266 1.91406 29.7812 1.90625 29.8359 1.90625C30.0703 1.90625 30.3008 1.92969 30.5273 1.97656C30.7617 2.02344 30.9922 2.06641 31.2188 2.10547C31.2344 2.19922 31.2734 2.26562 31.3359 2.30469C31.4062 2.34375 31.4805 2.37891 31.5586 2.41016V2.45703C31.5586 2.51953 31.5742 2.57031 31.6055 2.60938C31.5742 2.71875 31.5195 2.80078 31.4414 2.85547C31.3633 2.91016 31.2773 2.95703 31.1836 2.99609C31.2227 3.02734 31.2461 3.07031 31.2539 3.125C31.2617 3.17969 31.2656 3.23047 31.2656 3.27734V3.41797L31.207 3.40625C31.082 3.40625 31.0195 3.46484 31.0195 3.58203C30.918 3.51953 30.8047 3.48047 30.6797 3.46484C30.5625 3.44922 30.4453 3.44141 30.3281 3.44141C30.1719 3.44141 30.0078 3.44922 29.8359 3.46484C29.6641 3.47266 29.4961 3.46875 29.332 3.45312C29.2695 3.53125 29.1914 3.58984 29.0977 3.62891C29.0039 3.66016 28.9102 3.67578 28.8164 3.67578C28.7148 3.67578 28.6172 3.65625 28.5234 3.61719C28.4297 3.57031 28.3633 3.50391 28.3242 3.41797C28.2852 3.40234 28.25 3.39453 28.2188 3.39453H28.1133C27.9883 3.39453 27.8633 3.41016 27.7383 3.44141C27.6211 3.46484 27.5 3.49609 27.375 3.53516C27.25 3.56641 27.125 3.60156 27 3.64062C26.8828 3.67188 26.7617 3.69141 26.6367 3.69922C26.5898 3.76172 26.5273 3.80469 26.4492 3.82812C26.3711 3.85156 26.3086 3.89453 26.2617 3.95703C26.0977 3.98828 25.9492 4.04297 25.8164 4.12109C25.6836 4.19141 25.5547 4.26953 25.4297 4.35547L25.0664 4.60156C24.9492 4.67969 24.8164 4.74609 24.668 4.80078C24.5586 4.91797 24.457 5.01172 24.3633 5.08203C24.2695 5.15234 24.1484 5.21484 24 5.26953C23.9062 5.30078 23.8516 5.34766 23.8359 5.41016C23.8281 5.47266 23.7969 5.53516 23.7422 5.59766C23.6953 5.65234 23.6367 5.69531 23.5664 5.72656C23.5039 5.75 23.4492 5.79297 23.4023 5.85547C23.3633 5.91016 23.332 5.97656 23.3086 6.05469C23.293 6.125 23.2734 6.19531 23.25 6.26562C23.2266 6.33594 23.1992 6.40625 23.168 6.47656C23.1367 6.53906 23.0898 6.59375 23.0273 6.64062C23.0273 6.67188 23.0234 6.70312 23.0156 6.73438C23.0156 6.76562 23.0156 6.79297 23.0156 6.81641C23.0156 6.92578 23.0273 7.03906 23.0508 7.15625C23.082 7.26562 23.1016 7.375 23.1094 7.48438C23.2656 7.75781 23.4492 8.00781 23.6602 8.23438C23.8711 8.45312 24.0977 8.65625 24.3398 8.84375C24.582 9.03125 24.832 9.20703 25.0898 9.37109C25.3555 9.53516 25.6172 9.69531 25.875 9.85156C25.9688 9.84375 26.0547 9.85547 26.1328 9.88672C26.2109 9.91016 26.293 9.92578 26.3789 9.93359C26.4727 10.0039 26.582 10.0586 26.707 10.0977L27.082 10.2148C27.207 10.2539 27.3281 10.3008 27.4453 10.3555C27.5625 10.4023 27.6602 10.4688 27.7383 10.5547C27.7773 10.5625 27.8125 10.5742 27.8438 10.5898C27.875 10.5977 27.9102 10.6016 27.9492 10.6016C27.9961 10.6016 28.0234 10.5859 28.0312 10.5547C28.3828 10.6875 28.7266 10.8359 29.0625 11C29.3984 11.1562 29.7539 11.2773 30.1289 11.3633C30.2773 11.4883 30.4414 11.5977 30.6211 11.6914C30.8008 11.7852 30.9805 11.8828 31.1602 11.9844C31.3398 12.0781 31.5117 12.1836 31.6758 12.3008C31.8398 12.4102 31.9844 12.543 32.1094 12.6992C32.125 12.8477 32.1562 12.9922 32.2031 13.1328C32.2578 13.2656 32.2852 13.4102 32.2852 13.5664Z" fill="#03DAC6"/>
</svg>
