<?xml version="1.0" encoding="UTF-8"?>
<svg width="423px" height="218px" viewBox="0 0 423 218" version="1.1" xmlns="http://www.w3.org/2000/svg" xmlns:xlink="http://www.w3.org/1999/xlink">
    <!-- Generator: Sketch 43.2 (39069) - http://www.bohemiancoding.com/sketch -->
    <title>Group</title>
    <desc>Created with Sketch.</desc>
    <defs></defs>
    <g id="Page-1" stroke="none" stroke-width="1" fill="none" fill-rule="evenodd">
        <g id="Artboard" transform="translate(-192.000000, -1095.000000)">
            <g id="Group" transform="translate(192.000000, 1095.000000)">
                <path d="M23.8454109,167.648264 C23.8866831,167.785437 23.9597672,168.030595 24.0539833,168.350513 C24.2110557,168.883863 24.3680772,169.426078 24.5142197,169.943342 C24.5489175,170.066327 24.5489175,170.066327 24.5834446,170.189447 C24.8365196,171.093346 25.0196236,171.796294 25.0971747,172.171204 C25.3488887,173.388084 26.5394191,174.170505 27.7562986,173.918791 C28.9731782,173.667077 29.7555995,172.476547 29.5038855,171.259667 C29.3988004,170.751647 29.1971196,169.977382 28.9168034,168.976187 C28.8807809,168.847734 28.8807809,168.847734 28.8447016,168.719853 C28.69358,168.184965 28.5321043,167.62737 28.3706796,167.07924 C28.2737974,166.75027 28.1982494,166.496847 28.1545891,166.351736 C27.7965631,165.16179 26.5416832,164.487385 25.3517365,164.845411 C24.1617897,165.203437 23.4873848,166.458317 23.8454109,167.648264 Z" id="Path-21" fill="#28555B" fill-rule="nonzero"></path>
                <path d="M9.47837746,174.474457 C9.51799061,174.401739 9.5558719,174.342248 9.58821061,174.297838 C10.8808653,174.251879 17.6356092,174.239657 27.4470292,174.258925 C30.3653616,174.264656 33.4656013,174.272847 36.6500011,174.282862 C38.9359685,174.290052 41.1315023,174.297755 43.1578609,174.305458 C43.8670655,174.308154 44.2920093,174.309823 45.0601877,174.312904 C45.1774481,174.346294 45.2237786,174.381909 45.2691475,174.419397 C45.3150717,174.457344 45.3545808,174.493089 45.3867582,174.524604 C45.3668194,175.037972 45.3525392,175.758671 45.342463,176.648831 C45.3354875,177.265072 45.3310124,177.923984 45.3285269,178.582707 C45.3270359,178.977857 45.3265383,179.285589 45.3265383,179.462514 C45.3265383,180.705154 46.3338976,181.712514 47.5765383,181.712514 C48.819179,181.712514 49.8265383,180.705154 49.8265383,179.462514 C49.8265383,179.290911 49.827027,178.988721 49.8284949,178.599686 C49.8309408,177.951433 49.8353423,177.303368 49.8421748,176.699765 C49.8536529,175.68575 49.870972,174.901912 49.8936922,174.468707 C49.9706195,173.001937 49.2464344,171.868342 48.1355314,170.950414 C47.618705,170.523366 47.1192605,170.225209 46.7335226,170.039159 C46.4315557,169.893514 46.100858,169.81719 45.7656051,169.815767 C45.6443684,169.815253 45.6443684,169.815253 45.0783784,169.81294 C44.3096911,169.809857 43.8845418,169.808188 43.174967,169.80549 C41.1476704,169.797784 38.9511636,169.790077 36.6641536,169.782885 C33.4780909,169.772864 30.3761195,169.764668 27.4558664,169.758933 C16.343068,169.73711 9.84975843,169.751232 9.01436857,169.824306 C7.40271038,169.965283 6.27511924,170.947837 5.52666832,172.321786 C5.12802675,173.053581 4.90596201,173.750229 4.79617289,174.283781 C4.76547033,174.432989 4.75,174.584929 4.75,174.737263 L4.75,179.776876 C4.75,181.019517 5.75735931,182.026876 7,182.026876 C8.24264069,182.026876 9.25,181.019517 9.25,179.776876 L9.25,175.019245 C9.29803882,174.865845 9.37629924,174.661845 9.47837746,174.474457 Z" id="Path-22" fill="#28555B" fill-rule="nonzero"></path>
                <path d="M10.3877005,181.038267 C10.3558178,181.1057 10.2946174,181.234486 10.2079499,181.415812 C10.0629,181.719286 9.90004917,182.057755 9.7232629,182.422381 C9.21857776,183.463304 8.70406486,184.503828 8.21121635,185.472245 C8.11642828,185.658498 8.02321954,185.840533 7.93173925,186.018015 C7.14329925,187.547675 6.51021107,188.684734 6.14764281,189.210572 C5.44225759,190.2336 5.69975845,191.634756 6.72278708,192.340142 C7.7458157,193.045527 9.14697197,192.788026 9.85235719,191.764997 C10.3598111,191.029031 11.0557134,189.779154 11.9316637,188.079714 C12.0267668,187.895204 12.1234966,187.706292 12.2217247,187.51328 C12.7292043,186.516113 13.2560469,185.450655 13.772434,184.385596 C13.953023,184.013127 14.1194853,183.667152 14.2680225,183.356382 C14.3575072,183.169161 14.4214054,183.034699 14.455904,182.961733 C14.9870544,181.838329 14.5069385,180.497049 13.3835351,179.965898 C12.2601317,179.434748 10.9188509,179.914864 10.3877005,181.038267 Z" id="Path-23" fill="#28555B" fill-rule="nonzero"></path>
                <path d="M24.0881953,179.186382 C24.1175679,179.233715 24.1835717,179.345775 24.2737007,179.509169 C24.4290823,179.790859 24.5852062,180.099053 24.729504,180.418782 C24.9470027,180.900705 25.1150699,181.360155 25.214599,181.761122 C25.2795561,182.022811 25.3106361,182.241929 25.3106361,182.401073 C25.3106361,183.643714 26.3179954,184.651073 27.5606361,184.651073 C28.8032768,184.651073 29.8106361,183.643714 29.8106361,182.401073 C29.8106361,181.843472 29.7293503,181.270397 29.5820608,180.67702 C29.4100393,179.984006 29.1520529,179.278743 28.8311321,178.567661 C28.4926895,177.817756 28.1547774,177.205158 27.9118047,176.813618 C27.256584,175.757757 25.8694784,175.432974 24.8136178,176.088195 C23.7577572,176.743416 23.4329745,178.130522 24.0881953,179.186382 Z" id="Path-24" fill="#28555B" fill-rule="nonzero"></path>
                <path d="M47.1616962,197.052147 C48.4043369,197.052147 49.4116962,196.044788 49.4116962,194.802147 C49.4116962,193.753638 48.7754021,192.273273 47.3751041,189.480828 C47.2811452,189.293458 47.184681,189.102617 47.0858975,188.90861 C46.6225937,187.998698 46.1276088,187.056477 45.6327833,186.134495 C45.4596913,185.811981 45.2988759,185.514834 45.154369,185.24974 C45.0671719,185.08978 45.0044168,184.97538 44.9701487,184.913255 C44.3699561,183.825172 43.0013383,183.429659 41.9132552,184.029851 C40.8251722,184.630044 40.4296588,185.998662 41.0298513,187.086745 C41.0606097,187.142506 41.1197793,187.25037 41.2032767,187.403544 C41.3432608,187.660341 41.4994496,187.948939 41.6677468,188.262519 C42.1483188,189.157943 42.6287315,190.072425 43.0757987,190.950449 C43.1704825,191.136405 43.2627954,191.319033 43.3525328,191.497985 C43.852299,192.494608 44.2599506,193.352701 44.5473772,194.021411 C44.6969141,194.369315 44.809117,194.655221 44.8787736,194.863583 C44.8967411,194.917328 44.9104713,194.961759 44.9198275,194.994786 C45.0175475,196.14725 45.9839469,197.052147 47.1616962,197.052147 Z" id="Path-25" fill="#28555B" fill-rule="nonzero"></path>
                <path d="M34.9102762,194.203429 C33.2493298,194.240262 31.5762015,194.277095 29.9976094,194.311472 C29.8429376,194.314839 29.8429376,194.314839 29.6881875,194.318204 C26.7072786,194.383015 24.4542105,194.43045 23.2629157,194.453147 C23.1891195,194.319129 23.1105424,194.167119 23.0292484,194.000848 C22.8671365,193.669278 22.7056284,193.305351 22.5546096,192.94031 C22.5356321,192.894438 22.5177579,192.850852 22.5010585,192.809812 L22.2494938,180.952276 C22.2231364,179.709915 21.1946368,178.724149 19.9522757,178.750506 C18.7099145,178.776864 17.7241488,179.805363 17.7505062,181.047724 L18.0106122,193.307858 C18.0160103,193.562296 18.0645361,193.813975 18.1541242,194.052182 C18.2028617,194.18177 18.2857735,194.393165 18.3964031,194.660577 C18.5806771,195.106002 18.7788469,195.55254 18.9865732,195.977405 C19.2256436,196.466378 19.4635641,196.898595 19.7077229,197.269564 C20.4152246,198.344524 21.0719115,198.968119 22.3409541,198.968119 C22.7009863,198.968119 25.3780167,198.912979 29.7860029,198.817141 C29.9408321,198.813774 29.9408321,198.813774 30.0955802,198.810405 C31.6748377,198.776014 33.3485422,198.739169 35.0100438,198.702323 C35.9505324,198.681444 35.9505324,198.681444 36.6120922,198.666706 C37.1075193,198.655652 37.1075193,198.655652 37.2173424,198.653194 C37.8700949,198.638584 38.4843108,198.341148 38.9005358,197.838101 C38.9677095,197.756916 39.0778423,197.621093 39.217195,197.444653 C39.4486847,197.151553 39.6804913,196.847379 39.8998726,196.544359 C39.9886629,196.421717 40.0739079,196.301297 40.1552106,196.183382 C40.9002789,195.102801 41.2377391,194.473544 41.2377391,193.574496 C41.2377391,193.385895 41.280224,192.545671 41.3477535,191.388213 C41.3557921,191.250751 41.3557921,191.250751 41.3638729,191.113751 C41.3921785,190.634811 41.4225298,190.135929 41.4528837,189.646789 C41.4710935,189.353347 41.4852446,189.128565 41.4933016,189.001976 C41.572232,187.761844 40.6308926,186.692534 39.3907612,186.613603 C38.1506298,186.534673 37.0813189,187.476012 37.0023886,188.716144 C36.9941889,188.844974 36.979891,189.072088 36.9615233,189.368075 C36.9309149,189.861317 36.9003039,190.364466 36.8717113,190.848261 C36.8635354,190.986874 36.8635354,190.986874 36.8553927,191.126116 C36.7794913,192.42707 36.7377391,193.252803 36.7377391,193.574496 C36.7377391,193.21703 36.7678378,193.135961 36.8007302,193.074627 C36.7292613,193.207894 36.607874,193.40071 36.4504963,193.628957 C36.3895535,193.717343 36.3241237,193.809772 36.2548634,193.905437 C36.1897119,193.995428 36.1224355,194.086568 36.0537925,194.178025 C35.7667148,194.184416 35.5698477,194.188787 34.9102762,194.203429 Z" id="Path-26" fill="#28555B" fill-rule="nonzero"></path>
                <path d="M35.2322992,179.599182 C35.1396672,179.715614 34.9377881,179.957842 34.6309836,180.307806 C34.1073224,180.905133 33.4871296,181.574472 32.7748278,182.297773 C30.7305097,184.373658 28.3686382,186.452478 25.7264693,188.390674 C19.2493143,193.142073 12.1987754,196.256844 4.77758768,196.994038 C3.54103301,197.116873 2.63818477,198.218876 2.76101971,199.455431 C2.88385464,200.691986 3.98585765,201.594834 5.22241232,201.471999 C13.5347135,200.646284 21.3100947,197.211294 28.3881467,192.0191 C31.2358133,189.930158 33.7762346,187.694187 35.9810933,185.455282 C36.7560035,184.668406 37.4351536,183.935437 38.0147698,183.274284 C38.3699318,182.86916 38.6175603,182.572039 38.7537804,182.400818 C39.5274311,181.428388 39.3662885,180.01291 38.3938583,179.239259 C37.4214281,178.465609 36.0059499,178.626751 35.2322992,179.599182 Z" id="Path-27" fill="#28555B" fill-rule="nonzero"></path>
                <path d="M8.81878837,213.179242 L8.87914196,212.661604 C8.85970313,212.743832 8.83863568,212.849043 8.81878837,212.974699 L8.81878837,213.179242 Z M8.81878837,205.320182 C8.81878837,204.077541 9.82614768,203.070182 11.0687884,203.070182 C12.3114291,203.070182 13.3187884,204.077541 13.3187884,205.320182 L13.3187884,213.129778 L40.0742852,213.129778 C40.2469935,213.058622 40.4571535,212.958701 40.6561447,212.838382 C40.8880881,212.698138 41.0012623,212.588662 40.9827249,212.63347 C40.9462215,212.721706 40.9553074,212.679537 40.9680159,212.577774 C40.9925274,212.381499 41.0120933,212.113447 41.024948,211.786901 C41.0498525,211.154258 41.0485304,210.341418 41.0242777,209.397158 C41.0051533,208.652561 40.9726109,207.855048 40.9304287,207.038722 C40.9056254,206.558718 40.8790439,206.102169 40.8524903,205.684637 C40.8366442,205.43547 40.8244179,205.255896 40.81762,205.161338 C40.7285157,203.921896 41.6610486,202.844896 42.9004905,202.755792 C44.1399325,202.666688 45.216932,203.59922 45.3060363,204.838662 C45.3136888,204.945109 45.3267506,205.136953 45.3434177,205.399029 C45.3710528,205.833568 45.3986602,206.307736 45.424433,206.806503 C45.4684913,207.659137 45.5025768,208.494466 45.5227942,209.281616 C45.5896725,211.885479 45.5294799,213.414543 45.1409314,214.353738 C44.7243112,215.360786 43.962094,216.098096 42.9845188,216.689184 C42.2862601,217.111383 41.6169766,217.38117 41.113094,217.533505 C40.9019461,217.59734 40.6825586,217.629778 40.4619722,217.629778 L12.3693184,217.629778 C10.3924803,217.629778 9.12077287,216.364033 8.82082797,214.672313 C8.72070244,214.107594 8.73283919,213.566197 8.80751283,213.049311 C8.81121294,213.023699 8.81497817,212.998822 8.81878837,212.974699 L8.81878837,205.320182 Z" id="Path-28" fill="#28555B" fill-rule="nonzero"></path>
                <path d="M21.75,203 L21.75,215.574496 C21.75,216.817136 22.7573593,217.824496 24,217.824496 C25.2426407,217.824496 26.25,216.817136 26.25,215.574496 L26.25,203 C26.25,201.757359 25.2426407,200.75 24,200.75 C22.7573593,200.75 21.75,201.757359 21.75,203 Z" id="Path-29" fill="#28555B" fill-rule="nonzero"></path>
                <path d="M8.18729001,88.1516279 C8.32454454,88.1401631 8.57382199,88.1178002 8.91928261,88.0843683 C9.49071356,88.0290681 10.1263815,87.9623703 10.8105423,87.8840785 C12.7683451,87.6600379 14.7275698,87.3873948 16.5656787,87.0634382 C19.7870421,86.4956906 22.2914086,85.8373011 23.9384293,85.0111885 C25.049178,84.4540592 25.4979753,83.1019769 24.940846,81.9912281 C24.3837167,80.8804794 23.0316343,80.4316821 21.9208856,80.9888115 C20.774365,81.5638832 18.5996709,82.135603 15.7846164,82.6317408 C14.0460983,82.9381451 12.1732226,83.1987719 10.2989249,83.4132567 C9.64185054,83.4884489 9.03208589,83.5524288 8.48582088,83.6052935 C8.16066392,83.6367605 7.93092882,83.6573702 7.81270999,83.6672451 C6.57438185,83.7706825 5.65437114,84.8583984 5.75780856,86.0967265 C5.86124598,87.3350546 6.94896187,88.2550653 8.18729001,88.1516279 Z" id="Path-12" fill="#28555B" fill-rule="nonzero"></path>
                <path d="M12.75,85 L12.75,132.763249 C12.75,134.00589 13.7573593,135.013249 15,135.013249 C16.2426407,135.013249 17.25,134.00589 17.25,132.763249 L17.25,85 C17.25,83.7573593 16.2426407,82.75 15,82.75 C13.7573593,82.75 12.75,83.7573593 12.75,85 Z" id="Path-13" fill="#28555B" fill-rule="nonzero"></path>
                <path d="M11,101.25 L25.4312147,101.25 C26.6738554,101.25 27.6812147,100.242641 27.6812147,99 C27.6812147,97.7573593 26.6738554,96.75 25.4312147,96.75 L11,96.75 C9.75735931,96.75 8.75,97.7573593 8.75,99 C8.75,100.242641 9.75735931,101.25 11,101.25 Z" id="Path-14" fill="#28555B" fill-rule="nonzero"></path>
                <path d="M13.5364684,98.2822237 C13.4778552,98.4563577 13.3676724,98.7834762 13.2133173,99.2413798 C12.9560123,100.004691 12.669032,100.855271 12.3596486,101.771292 C11.4757326,104.388389 10.5894292,107.005436 9.75895766,109.44769 C9.7295225,109.53425 9.7295225,109.53425 9.70008561,109.620803 C8.66775044,112.656056 7.79960389,115.191688 7.14949358,117.066152 C6.78290462,118.123138 6.49065491,118.955368 6.2803854,119.540193 C6.17241699,119.840486 6.08723449,120.07225 6.02734403,120.228828 C6.0013877,120.296689 5.98194101,120.345771 5.97156968,120.370437 C6.02189062,120.250758 6.0407385,120.211084 6.16715126,120.033547 C5.44638993,121.045802 5.68269177,122.450689 6.69494618,123.17145 C7.70720058,123.892211 9.11208742,123.655909 9.83284874,122.643655 C10.1734117,122.16536 10.857612,120.192604 13.9604135,111.069805 C13.9898975,110.983114 13.9898975,110.983114 14.019379,110.896417 C14.8509611,108.450898 15.7382143,105.831045 16.6230449,103.211241 C16.9327227,102.294348 17.2199837,101.442935 17.477561,100.678817 C17.6321353,100.220263 17.7424446,99.892769 17.8013469,99.7177763 C18.1977639,98.5400626 17.5643977,97.2639777 16.386684,96.8675607 C15.2089703,96.4711438 13.9328854,97.10451 13.5364684,98.2822237 Z" id="Path-15" fill="#28555B" fill-rule="nonzero"></path>
                <path d="M15.9013242,100.811209 L21.2979629,114.772835 C21.7459813,115.931901 23.048781,116.50832 24.2078477,116.060302 C25.3669143,115.612283 25.9433329,114.309483 25.4953145,113.150417 L20.0986758,99.1887911 C19.6506575,98.0297245 18.3478577,97.4533059 17.1887911,97.9013242 C16.0297245,98.3493425 15.4533059,99.6521423 15.9013242,100.811209 Z" id="Path-16" fill="#28555B" fill-rule="nonzero"></path>
                <path d="M30.9007095,116.642149 C30.7740215,117.237549 30.6302814,117.901459 30.4723362,118.616613 C30.0213649,120.658549 29.5474481,122.699864 29.0738569,124.600888 C28.7777806,125.789357 28.4910501,126.885052 28.2172215,127.867845 C27.72255,129.643262 27.2821303,131.004042 26.9309137,131.826137 C26.4427171,132.968861 26.9733171,134.290984 28.1160419,134.779181 C29.2587668,135.267378 30.5808898,134.736778 31.0690863,133.594053 C31.5167142,132.546287 32.0082798,131.027481 32.5521063,129.075643 C32.8379416,128.049756 33.1349214,126.914895 33.4403965,125.688699 C33.9248158,123.744209 34.4074536,121.665331 34.8664467,119.587073 C35.026989,118.86016 35.1731635,118.185006 35.3021755,117.578683 C35.379823,117.21376 35.4346725,116.952008 35.4639173,116.810537 C35.4948945,116.660686 35.5105043,116.508066 35.5105043,116.355047 L35.5105043,100 C35.5105043,98.7573593 34.503145,97.75 33.2605043,97.75 C32.0178636,97.75 31.0105043,98.7573593 31.0105043,100 L31.0105043,116.122929 C30.9821893,116.257878 30.9453971,116.432129 30.9007095,116.642149 Z" id="Path-17" fill="#28555B" fill-rule="nonzero"></path>
                <path d="M38.079437,85.172151 C38.1200347,85.23867 38.1975697,85.3662984 38.3067407,85.5469475 C38.4894643,85.849307 38.693264,86.1885785 38.9128249,86.5566487 C39.5398154,87.6077303 40.1666321,88.6775242 40.7503169,89.7002485 C40.8513883,89.8773444 40.9504205,90.0517393 41.0472683,90.2232088 C42.2628933,92.3754801 43.1360068,94.1115612 43.1814614,94.3669112 C43.3992391,95.5903199 44.5675514,96.4055448 45.7909601,96.1877672 C47.0143688,95.9699895 47.8295938,94.8016771 47.6118161,93.5782685 C47.4315584,92.5656354 46.5628152,90.8382443 44.9654841,88.0101601 C44.8652828,87.8327531 44.7629467,87.6525402 44.6586107,87.469724 C44.0590926,86.4192568 43.4181919,85.3254256 42.7774649,84.2513163 C42.5533248,83.8755696 42.3451163,83.5289584 42.1580891,83.2194777 C42.0454095,83.0330227 41.9644798,82.8998065 41.920563,82.827849 C41.2732018,81.7671514 39.8885466,81.4320759 38.827849,82.079437 C37.7671514,82.7267982 37.4320759,84.1114534 38.079437,85.172151 Z" id="Path-18" fill="#28555B" fill-rule="nonzero"></path>
                <path d="M41.1900318,130.243254 C41.0768068,129.999467 40.9540414,129.694285 40.8297576,129.34519 C40.6634301,128.878002 40.5056618,128.366678 40.363677,127.853918 C40.319717,127.695162 40.2825066,127.555667 40.2527384,127.440776 L40.5339235,99.0222614 C40.5462181,97.7796815 39.5488749,96.7624048 38.306295,96.7501101 C37.0637151,96.7378155 36.0464384,97.7351588 36.0341437,98.9777386 L35.7501101,127.684149 C35.7483053,127.86656 35.7686904,128.048514 35.8108166,128.226003 C35.8523739,128.401095 35.9256694,128.689321 36.0268692,129.054792 C36.1955462,129.663948 36.3839439,130.274541 36.5904105,130.854474 C37.5287226,133.49005 38.2723277,134.743254 40.2722689,134.743254 L49.3613447,134.743254 C49.9593118,134.743254 50.5326837,134.505225 50.9548427,134.081732 C51.2959173,133.73958 51.7791362,133.21506 52.271291,132.599822 C52.5117112,132.299274 52.7315327,132.003294 52.926989,131.712154 C53.3647205,131.060136 53.6724457,130.455088 53.8227971,129.821617 C54.0035913,129.059882 54.0342656,127.464061 53.9977933,124.754664 C53.9867739,123.936067 53.9688705,123.065712 53.945989,122.175707 C53.9320635,121.634054 53.9171452,121.118098 53.9022204,120.644808 C53.8932449,120.360183 53.8862403,120.152437 53.8821922,120.038608 C53.8380279,118.796752 52.7955028,117.825832 51.5536471,117.869996 C50.3117915,117.91416 49.3408709,118.956686 49.3850352,120.198541 C49.3888769,120.306566 49.3956795,120.508322 49.4044561,120.786642 C49.4191181,121.251595 49.4337866,121.758913 49.4474755,122.29136 C49.4699156,123.164201 49.4874514,124.016684 49.498201,124.815235 C49.526483,126.916203 49.4946805,128.570715 49.4444303,128.782433 C49.4440699,128.783951 49.3543137,128.960429 49.1908545,129.203908 C49.0706776,129.382917 48.9240635,129.580326 48.7572809,129.788819 C48.6357874,129.940697 48.5079104,130.093192 48.3771847,130.243254 L41.1900318,130.243254 Z" id="Path-19" fill="#28555B" fill-rule="nonzero"></path>
                <path d="M0.771030442,187.306912 C0.782949282,187.393473 0.782949282,187.393473 0.83690313,187.786872 C0.889380004,188.169933 0.94786206,188.598165 1.01084598,189.061036 C1.19078337,190.383403 1.37071248,191.718154 1.53858606,192.980892 C1.55989611,193.141253 1.55989611,193.141253 1.58118431,193.301733 C1.99233903,196.402625 2.28792479,198.79114 2.28792479,198.967108 C2.28792479,199.326916 2.32075683,201.043722 2.37767403,203.771936 C2.3811039,203.936215 2.3811039,203.936215 2.38453884,204.100263 C2.40557604,205.104274 2.42811387,206.161197 2.45065146,207.205638 C2.46342238,207.796431 2.46342238,207.796431 2.47243776,208.211105 C2.47919997,208.521363 2.47919997,208.521363 2.48070503,208.59007 C2.50791925,209.832412 3.53709844,210.817469 4.77944109,210.790254 C6.02178374,210.76304 7.00683997,209.733861 6.97962575,208.491518 C6.97812705,208.423102 6.97812705,208.423102 6.97137235,208.113189 C6.96236517,207.698892 6.96236517,207.698892 6.94960414,207.108557 C6.92708533,206.064986 6.90456678,205.008967 6.88355134,204.005994 C6.88012054,203.842145 6.88012054,203.842145 6.87669506,203.678075 C6.82151861,201.033302 6.78792479,199.276661 6.78792479,198.967108 C6.78792479,198.467292 6.54211539,196.481001 6.04214168,192.710244 C6.02074882,192.548975 6.02074882,192.548975 5.99933873,192.387861 C5.83079126,191.120054 5.65026925,189.780905 5.46975551,188.454302 C5.40658154,187.990034 5.34791699,187.560467 5.29526228,187.176107 C5.24108079,186.781048 5.24108079,186.781048 5.22896956,186.693088 C5.05946698,185.462063 3.92411433,184.601528 2.69308843,184.77103 C1.46206254,184.940533 0.601527864,186.075886 0.771030442,187.306912 Z" id="Path-20" fill="#28555B" fill-rule="nonzero"></path>
                <path d="M14.0150428,11.4575192 L45.0612549,11.2499497 C46.3038678,11.2416418 47.3044697,10.2275701 47.2961618,8.98495723 C47.2878539,7.74234432 46.2737823,6.7417424 45.0311694,6.75005029 L13.9849572,6.95761979 C12.7423443,6.96592768 11.7417424,7.97999935 11.7500503,9.22261227 C11.7583582,10.4652252 12.7724299,11.4658271 14.0150428,11.4575192 Z" id="Path-5" fill="#28555B" fill-rule="nonzero"></path>
                <path d="M49.867613,22.1657027 C49.7835219,23.8528636 49.2905644,26.3095224 48.2901768,29.6187627 C47.9305961,30.8082405 48.6033607,32.0640006 49.7928385,32.4235813 C50.9823164,32.783162 52.2380765,32.1103974 52.5976572,30.9209196 C54.6793178,24.0348735 54.8739739,20.129394 53.5181378,18.1236578 C52.9663822,17.3074263 52.2098725,16.8673511 51.4744996,16.7696134 C51.3762268,16.7565521 51.2771981,16.75 51.1780611,16.75 L10,16.75 C8.75735931,16.75 7.75,17.7573593 7.75,19 C7.75,20.2426407 8.75735931,21.25 10,21.25 L49.8668207,21.25 C49.8837753,21.5041334 49.8854035,21.8087634 49.867613,22.1657027 Z" id="Path-6" fill="#28555B" fill-rule="nonzero"></path>
                <path d="M23.75,3 L23.75,18.7243168 C23.75,19.9669575 24.7573593,20.9743168 26,20.9743168 C27.2426407,20.9743168 28.25,19.9669575 28.25,18.7243168 L28.25,3 C28.25,1.75735931 27.2426407,0.75 26,0.75 C24.7573593,0.75 23.75,1.75735931 23.75,3 Z" id="Path-7" fill="#28555B" fill-rule="nonzero"></path>
                <path d="M19.2483012,25.4121088 L23.6531659,30.8762742 C24.4330521,31.8437107 25.849537,31.9957504 26.8169735,31.2158642 C27.7844101,30.435978 27.9364497,29.0194931 27.1565635,28.0520566 L22.7516988,22.5878912 C21.9718126,21.6204546 20.5553277,21.468415 19.5878912,22.2483012 C18.6204546,23.0281874 18.468415,24.4446723 19.2483012,25.4121088 Z" id="Path-8" fill="#28555B" fill-rule="nonzero"></path>
                <path d="M15.2483012,30.4121088 L19.6531659,35.8762742 C20.4330521,36.8437107 21.849537,36.9957504 22.8169735,36.2158642 C23.7844101,35.435978 23.9364497,34.0194931 23.1565635,33.0520566 L18.7516988,27.5878912 C17.9718126,26.6204546 16.5553277,26.468415 15.5878912,27.2483012 C14.6204546,28.0281874 14.468415,29.4446723 15.2483012,30.4121088 Z" id="Path-8" fill="#28555B" fill-rule="nonzero"></path>
                <path d="M26.2041137,40.8929551 C26.145417,41.286018 26.0547414,41.7317498 25.9256318,42.2161286 C25.5538455,43.610954 24.9528391,45.0065393 24.0776004,46.2997396 C21.9961131,49.3752207 18.6914256,51.4408163 13.723014,52.0571399 C12.4898253,52.210115 11.6141391,53.3338229 11.7671142,54.5670116 C11.9200894,55.8002004 13.0437972,56.6758865 14.276986,56.5229114 C20.5487986,55.7449029 25.0032493,52.9606476 27.8043049,48.8219753 C28.9814096,47.0827559 29.7795887,45.2293199 30.2738187,43.375124 C30.574863,42.2457005 30.7098438,41.3417998 30.7451143,40.7675471 L30.7493463,40.6296122 L30.7493463,28 C30.7493463,26.7573593 29.741987,25.75 28.4993463,25.75 C27.2567056,25.75 26.2493463,26.7573593 26.2493463,28 L26.2493463,40.5418356 C26.2427028,40.6098596 26.2286117,40.7289039 26.2041137,40.8929551 Z" id="Path-9" fill="#204E4D" fill-rule="nonzero"></path>
                <path d="M13.0131084,40.4575313 L48.6409005,40.2499618 C49.8835201,40.2427222 50.8849935,39.2295112 50.8777539,37.9868916 C50.8705144,36.744272 49.8573033,35.7427986 48.6146837,35.7500382 L12.9868916,35.9576077 C11.744272,35.9648473 10.7427986,36.9780583 10.7500382,38.2206779 C10.7572778,39.4632975 11.7704888,40.4647709 13.0131084,40.4575313 Z" id="Path-10" fill="#28555B" fill-rule="nonzero"></path>
                <path d="M32.5026414,45.6794098 C32.5762491,45.7450377 32.7161822,45.8700062 32.9118951,46.045116 C33.2385141,46.3373512 33.6025672,46.6637811 33.9946648,47.0162382 C35.1146379,48.0229839 36.2344712,49.0361469 37.2786956,49.9900551 C37.368818,50.0723993 37.368818,50.0723993 37.4588852,50.154761 C39.7994066,52.2954987 41.5575436,53.9701501 41.7149479,54.1898148 C42.4387424,55.1999025 43.8443318,55.431989 44.8544195,54.7081944 C45.8645073,53.9843999 46.0965938,52.5788105 45.3727992,51.5687227 C44.9266886,50.9461554 43.3573679,49.4513544 40.4959898,46.8342195 C40.404881,46.7509054 40.404881,46.7509054 40.3137508,46.6676403 C39.2596276,45.7046895 38.1312312,44.683779 37.0029747,43.6695874 C36.6081919,43.3147166 36.2415705,42.9859838 35.9124558,42.6915156 C35.7147285,42.5146034 35.5736329,42.3885968 35.4973586,42.3205902 C34.5698461,41.4936219 33.1475585,41.575129 32.3205902,42.5026414 C31.4936219,43.4301539 31.575129,44.8524415 32.5026414,45.6794098 Z" id="Path-11" fill="#28555B" fill-rule="nonzero"></path>
                <path d="M94.1015625,124 L102.257812,124 L102.257812,93.4375 C102.257812,90.0624831 103.312489,87.2500112 105.421875,85 C107.531261,82.7499888 110.195296,81.625 113.414062,81.625 C116.445328,81.625 118.867178,82.5078037 120.679688,84.2734375 C122.492197,86.0390713 123.398438,88.3906103 123.398438,91.328125 L123.398438,124 L131.554688,124 L131.554688,93.015625 C131.554688,89.7031084 132.585927,86.9765732 134.648438,84.8359375 C136.710948,82.6953018 139.351546,81.625 142.570312,81.625 C145.789079,81.625 148.281241,82.5546782 150.046875,84.4140625 C151.812509,86.2734468 152.695312,88.8749833 152.695312,92.21875 L152.695312,124 L160.851562,124 L160.851562,90.34375 C160.851562,85.4999758 159.414077,81.632827 156.539062,78.7421875 C153.664048,75.851548 149.804712,74.40625 144.960938,74.40625 C141.55467,74.40625 138.500014,75.2265543 135.796875,76.8671875 C133.093736,78.5078207 131.054694,80.7812355 129.679688,83.6875 L129.492188,83.6875 C128.429682,80.7187352 126.718762,78.4296955 124.359375,76.8203125 C121.999988,75.2109295 119.148454,74.40625 115.804688,74.40625 C112.523421,74.40625 109.687512,75.1953046 107.296875,76.7734375 C104.906238,78.3515704 103.132818,80.437487 101.976562,83.03125 L101.789062,83.03125 L101.789062,75.25 L94.1015625,75.25 L94.1015625,124 Z M171.632812,124 L179.789062,124 L179.789062,75.25 L171.632812,75.25 L171.632812,124 Z M175.710938,67.046875 C177.117195,67.046875 178.320308,66.54688 179.320312,65.546875 C180.320317,64.54687 180.820312,63.3593819 180.820312,61.984375 C180.820312,60.578118 180.320317,59.3828174 179.320312,58.3984375 C178.320308,57.4140576 177.117195,56.921875 175.710938,56.921875 C174.335931,56.921875 173.148442,57.4140576 172.148438,58.3984375 C171.148433,59.3828174 170.648438,60.578118 170.648438,61.984375 C170.648438,63.3593819 171.148433,64.54687 172.148438,65.546875 C173.148442,66.54688 174.335931,67.046875 175.710938,67.046875 Z M190.804688,124 L198.960938,124 L198.960938,93.4375 C198.960938,90.0624831 200.015614,87.2500112 202.125,85 C204.234386,82.7499888 206.898421,81.625 210.117188,81.625 C213.148453,81.625 215.570303,82.5078037 217.382812,84.2734375 C219.195322,86.0390713 220.101562,88.3906103 220.101562,91.328125 L220.101562,124 L228.257812,124 L228.257812,93.015625 C228.257812,89.7031084 229.289052,86.9765732 231.351562,84.8359375 C233.414073,82.6953018 236.054671,81.625 239.273438,81.625 C242.492204,81.625 244.984366,82.5546782 246.75,84.4140625 C248.515634,86.2734468 249.398438,88.8749833 249.398438,92.21875 L249.398438,124 L257.554688,124 L257.554688,90.34375 C257.554688,85.4999758 256.117202,81.632827 253.242188,78.7421875 C250.367173,75.851548 246.507837,74.40625 241.664062,74.40625 C238.257795,74.40625 235.203139,75.2265543 232.5,76.8671875 C229.796861,78.5078207 227.757819,80.7812355 226.382812,83.6875 L226.195312,83.6875 C225.132807,80.7187352 223.421887,78.4296955 221.0625,76.8203125 C218.703113,75.2109295 215.851579,74.40625 212.507812,74.40625 C209.226546,74.40625 206.390637,75.1953046 204,76.7734375 C201.609363,78.3515704 199.835943,80.437487 198.679688,83.03125 L198.492188,83.03125 L198.492188,75.25 L190.804688,75.25 L190.804688,124 Z M268.335938,124 L276.492188,124 L276.492188,75.25 L268.335938,75.25 L268.335938,124 Z M272.414062,67.046875 C273.82032,67.046875 275.023433,66.54688 276.023438,65.546875 C277.023442,64.54687 277.523438,63.3593819 277.523438,61.984375 C277.523438,60.578118 277.023442,59.3828174 276.023438,58.3984375 C275.023433,57.4140576 273.82032,56.921875 272.414062,56.921875 C271.039056,56.921875 269.851567,57.4140576 268.851562,58.3984375 C267.851558,59.3828174 267.351562,60.578118 267.351562,61.984375 C267.351562,63.3593819 267.851558,64.54687 268.851562,65.546875 C269.851567,66.54688 271.039056,67.046875 272.414062,67.046875 Z M287.507812,124 L295.664062,124 L295.664062,93.4375 C295.664062,90.0624831 296.718739,87.2500112 298.828125,85 C300.937511,82.7499888 303.601546,81.625 306.820312,81.625 C309.851578,81.625 312.273428,82.5078037 314.085938,84.2734375 C315.898447,86.0390713 316.804688,88.3906103 316.804688,91.328125 L316.804688,124 L324.960938,124 L324.960938,93.015625 C324.960938,89.7031084 325.992177,86.9765732 328.054688,84.8359375 C330.117198,82.6953018 332.757796,81.625 335.976562,81.625 C339.195329,81.625 341.687491,82.5546782 343.453125,84.4140625 C345.218759,86.2734468 346.101562,88.8749833 346.101562,92.21875 L346.101562,124 L354.257812,124 L354.257812,90.34375 C354.257812,85.4999758 352.820327,81.632827 349.945312,78.7421875 C347.070298,75.851548 343.210962,74.40625 338.367188,74.40625 C334.96092,74.40625 331.906264,75.2265543 329.203125,76.8671875 C326.499986,78.5078207 324.460944,80.7812355 323.085938,83.6875 L322.898438,83.6875 C321.835932,80.7187352 320.125012,78.4296955 317.765625,76.8203125 C315.406238,75.2109295 312.554704,74.40625 309.210938,74.40625 C305.929671,74.40625 303.093762,75.1953046 300.703125,76.7734375 C298.312488,78.3515704 296.539068,80.437487 295.382812,83.03125 L295.195312,83.03125 L295.195312,75.25 L287.507812,75.25 L287.507812,124 Z M380.695312,117.90625 C384.539082,117.90625 387.765612,116.710949 390.375,114.320312 C392.984388,111.929676 394.289062,108.984393 394.289062,105.484375 L394.289062,101.5 L381.257812,102.296875 C374.382778,102.734377 370.945312,105.374976 370.945312,110.21875 C370.945312,112.531262 371.835929,114.390618 373.617188,115.796875 C375.398446,117.203132 377.757798,117.90625 380.695312,117.90625 Z M378.867188,124.84375 C374.023413,124.84375 370.10939,123.500013 367.125,120.8125 C364.14061,118.124987 362.648438,114.593772 362.648438,110.21875 C362.648438,106.031229 364.187485,102.687512 367.265625,100.1875 C370.343765,97.6874875 374.695284,96.2812516 380.320312,95.96875 L394.289062,95.171875 L394.289062,91.09375 C394.289062,88.1249852 393.351572,85.7968834 391.476562,84.109375 C389.601553,82.4218666 386.976579,81.578125 383.601562,81.578125 C380.476547,81.578125 377.953135,82.2656181 376.03125,83.640625 C374.109365,85.0156319 372.882815,86.906238 372.351562,89.3125 L364.476562,89.3125 C364.757814,85.0937289 366.609358,81.5547018 370.03125,78.6953125 C373.453142,75.8359232 378.039034,74.40625 383.789062,74.40625 C389.507841,74.40625 394.046858,75.8437356 397.40625,78.71875 C400.765642,81.5937644 402.445312,85.4531008 402.445312,90.296875 L402.445312,124 L394.710938,124 L394.710938,115.609375 L394.523438,115.609375 C393.08593,118.390639 390.937514,120.624992 388.078125,122.3125 C385.218736,124.000008 382.148454,124.84375 378.867188,124.84375 Z M413.226562,124 L421.382812,124 L421.382812,75.25 L413.226562,75.25 L413.226562,124 Z M417.304688,67.046875 C418.710945,67.046875 419.914058,66.54688 420.914062,65.546875 C421.914067,64.54687 422.414062,63.3593819 422.414062,61.984375 C422.414062,60.578118 421.914067,59.3828174 420.914062,58.3984375 C419.914058,57.4140576 418.710945,56.921875 417.304688,56.921875 C415.929681,56.921875 414.742192,57.4140576 413.742188,58.3984375 C412.742183,59.3828174 412.242188,60.578118 412.242188,61.984375 C412.242188,63.3593819 412.742183,64.54687 413.742188,65.546875 C414.742192,66.54688 415.929681,67.046875 417.304688,67.046875 Z" id="mimimai" fill="#FFFFFF"></path>
            </g>
        </g>
    </g>
</svg>