<svg xmlns="http://www.w3.org/2000/svg" width="184" height="19" viewBox="0 0 184 19">
  <g fill="none" fill-rule="evenodd">
    <path fill="#173132" d="M8.8692,2.6784 C10.3436074,2.6784 11.6545943,3.01279666 12.8022,3.6816 C13.9498057,4.35040334 14.8579967,5.26239422 15.5268,6.4176 L13.1784,8.0592 C12.6767975,7.25359597 12.0726035,6.6304022 11.3658,6.1896 C10.6589965,5.7487978 9.82680479,5.5284 8.8692,5.5284 C8.1699965,5.5284 7.52780293,5.64999878 6.9426,5.8932 C6.35739707,6.13640122 5.84820217,6.4783978 5.415,6.9192 C4.98179783,7.3600022 4.64360122,7.88439696 4.4004,8.4924 C4.15719878,9.10040304 4.0356,9.76919635 4.0356,10.4988 C4.0356,11.2284036 4.15719878,11.893397 4.4004,12.4938 C4.64360122,13.094203 4.98179783,13.6109978 5.415,14.0442 C5.84820217,14.4774022 6.35739707,14.8155988 6.9426,15.0588 C7.52780293,15.3020012 8.1699965,15.4236 8.8692,15.4236 C9.82680479,15.4236 10.6589965,15.2032022 11.3658,14.7624 C12.0726035,14.3215978 12.6767975,13.698404 13.1784,12.8928 L15.5268,14.5344 C14.8579967,15.6896058 13.9498057,16.6015967 12.8022,17.2704 C11.6545943,17.9392033 10.3436074,18.2736 8.8692,18.2736 C7.74439438,18.2736 6.69560486,18.076002 5.7228,17.6808 C4.74999514,17.285598 3.90640357,16.7384035 3.192,16.0392 C2.47759643,15.3399965 1.91140209,14.5154047 1.4934,13.5654 C1.07539791,12.6153952 0.8664,11.5856055 0.8664,10.476 C0.8664,9.36639445 1.07539791,8.33660475 1.4934,7.3866 C1.91140209,6.43659525 2.47759643,5.6120035 3.192,4.9128 C3.90640357,4.2135965 4.74999514,3.66640198 5.7228,3.2712 C6.69560486,2.87599802 7.74439438,2.6784 8.8692,2.6784 Z M28.2036,13.0296 C28.2036,13.835204 28.0706013,14.5609968 27.8046,15.207 C27.5385987,15.8530032 27.1738023,16.4039977 26.7102,16.86 C26.2465977,17.3160023 25.6994032,17.6655988 25.0686,17.9088 C24.4377968,18.1520012 23.7576036,18.2736 23.028,18.2736 C22.2831963,18.2736 21.5954032,18.1520012 20.9646,17.9088 C20.3337968,17.6655988 19.7866023,17.3160023 19.323,16.86 C18.8593977,16.4039977 18.4946013,15.8530032 18.2286,15.207 C17.9625987,14.5609968 17.8296,13.835204 17.8296,13.0296 L17.8296,6.714 L20.8848,6.714 L20.8848,13.2804 C20.8848,13.9492033 21.0899979,14.4773981 21.5004,14.865 C21.9108021,15.2526019 22.419997,15.4464 23.028,15.4464 C23.620803,15.4464 24.1223979,15.2526019 24.5328,14.865 C24.9432021,14.4773981 25.1484,13.9492033 25.1484,13.2804 L25.1484,6.714 L28.2036,6.714 L28.2036,13.0296 Z M37.0956,6.5772 C37.4756019,6.5772 37.8023986,6.62279954 38.076,6.714 L38.076,9.4272 L37.2552,9.4272 C36.3735956,9.4272 35.6516028,9.66279764 35.0892,10.134 C34.5267972,10.6052024 34.2456,11.3499949 34.2456,12.3684 L34.2456,18 L31.1676,18 L31.1676,6.714 L33.9948,6.714 L33.9948,8.0592 C34.3748019,7.57279757 34.8307973,7.20420125 35.3628,6.9534 C35.8948027,6.70259875 36.4723969,6.5772 37.0956,6.5772 Z M44.6424,6.4632 C45.3568036,6.4632 46.010397,6.56579897 46.6032,6.771 C47.196003,6.97620103 47.7051979,7.28019799 48.1308,7.683 C48.5564021,8.08580201 48.8869988,8.587397 49.1226,9.1878 C49.3582012,9.788203 49.476,10.491196 49.476,11.2968 L49.476,18 L46.6716,18 L46.6716,16.9056 C46.276398,17.3312021 45.7862029,17.6655988 45.201,17.9088 C44.6157971,18.1520012 43.9508037,18.2736 43.206,18.2736 C42.597997,18.2736 42.0508024,18.1862009 41.5644,18.0114 C41.0779976,17.8365991 40.6676017,17.6010015 40.3332,17.3046 C39.9987983,17.0081985 39.7442009,16.6548021 39.5694,16.2444 C39.3945991,15.8339979 39.3072,15.3856024 39.3072,14.8992 C39.3072,13.8655948 39.6909962,13.0600029 40.4586,12.4824 C41.2262038,11.9047971 42.2711934,11.616 43.5936,11.616 L46.4208,11.616 L46.4208,11.1144 C46.4208,10.4911969 46.2460017,10.0048017 45.8964,9.6552 C45.5467983,9.30559825 45.0148036,9.1308 44.3004,9.1308 C43.707597,9.1308 43.1794023,9.26759863 42.7158,9.5412 C42.2521977,9.81480137 41.7848024,10.1947976 41.3136,10.6812 L39.7404,8.7888 C41.0172064,7.23839225 42.65119,6.4632 44.6424,6.4632 Z M44.0268,16.0164 C44.6956033,16.0164 45.2617977,15.8112021 45.7254,15.4008 C46.1890023,14.9903979 46.4208,14.4508033 46.4208,13.782 L46.4208,13.6452 L44.004,13.6452 C42.9551948,13.6452 42.4308,14.0251962 42.4308,14.7852 C42.4308,15.180402 42.5789985,15.4843989 42.8754,15.6972 C43.1718015,15.9100011 43.5555976,16.0164 44.0268,16.0164 Z M59.3484,9.3132 L56.1336,9.3132 L56.1336,13.7592 C56.1336,14.4128033 56.3045983,14.8687987 56.6466,15.1272 C56.9886017,15.3856013 57.5167964,15.5148 58.2312,15.5148 C58.4136009,15.5148 58.6263988,15.5072001 58.8696,15.492 C59.1128012,15.4767999 59.3863985,15.4540002 59.6904,15.4236 L59.6904,18 C59.3711984,18.0760004 59.0368017,18.1405997 58.6872,18.1938 C58.3375983,18.2470003 57.965202,18.2736 57.57,18.2736 C56.171593,18.2736 55.069604,17.9316034 54.264,17.2476 C53.458396,16.5635966 53.0556,15.4920073 53.0556,14.0328 L53.0556,9.3132 L51.2772,9.3132 L51.2772,6.714 L53.0556,6.714 L53.0556,3.864 L56.1336,3.864 L56.1336,6.714 L59.3484,6.714 L59.3484,9.3132 Z M65.0028,18 L61.9248,18 L61.9248,6.714 L65.0028,6.714 L65.0028,18 Z M63.4752,0.6948 C64.0072027,0.6948 64.4669981,0.877198176 64.8546,1.242 C65.2422019,1.60680182 65.436,2.06279726 65.436,2.61 C65.436,3.14200266 65.2422019,3.59039818 64.8546,3.9552 C64.4669981,4.32000182 64.0072027,4.5024 63.4752,4.5024 C62.9279973,4.5024 62.4606019,4.32000182 62.073,3.9552 C61.6853981,3.59039818 61.4916,3.14200266 61.4916,2.61 C61.4916,2.06279726 61.6853981,1.60680182 62.073,1.242 C62.4606019,0.877198176 62.9279973,0.6948 63.4752,0.6948 Z M73.4616,6.4632 C74.2976042,6.4632 75.0841963,6.61519848 75.8214,6.9192 C76.5586037,7.22320152 77.2007973,7.63739738 77.748,8.1618 C78.2952027,8.68620262 78.7283984,9.30559643 79.0476,10.02 C79.3668016,10.7344036 79.5264,11.5095958 79.5264,12.3456 C79.5264,13.1816042 79.3668016,13.9605964 79.0476,14.6826 C78.7283984,15.4046036 78.2952027,16.0277974 77.748,16.5522 C77.2007973,17.0766026 76.5586037,17.4907985 75.8214,17.7948 C75.0841963,18.0988015 74.2976042,18.2508 73.4616,18.2508 C72.6255958,18.2508 71.8390037,18.0988015 71.1018,17.7948 C70.3645963,17.4907985 69.7224027,17.0766026 69.1752,16.5522 C68.6279973,16.0277974 68.1986016,15.4046036 67.887,14.6826 C67.5753984,13.9605964 67.4196,13.1816042 67.4196,12.3456 C67.4196,11.5095958 67.5753984,10.7344036 67.887,10.02 C68.1986016,9.30559643 68.6279973,8.68620262 69.1752,8.1618 C69.7224027,7.63739738 70.3607964,7.22320152 71.0904,6.9192 C71.8200036,6.61519848 72.6103957,6.4632 73.4616,6.4632 Z M73.4616,9.2676 C72.5951957,9.2676 71.8922027,9.56019707 71.3526,10.1454 C70.8129973,10.7306029 70.5432,11.4715955 70.5432,12.3684 C70.5432,13.2652045 70.8129973,13.9985971 71.3526,14.5686 C71.8922027,15.1386028 72.5951957,15.4236 73.4616,15.4236 C73.8720021,15.4236 74.2557982,15.3476008 74.613,15.1956 C74.9702018,15.0435992 75.2779987,14.8308014 75.5364,14.5572 C75.7948013,14.2835986 75.9999992,13.9606019 76.152,13.5882 C76.3040008,13.2157981 76.38,12.8092022 76.38,12.3684 C76.38,11.9275978 76.3040008,11.5172019 76.152,11.1372 C75.9999992,10.7571981 75.7948013,10.4304014 75.5364,10.1568 C75.2779987,9.88319863 74.9702018,9.6666008 74.613,9.507 C74.2557982,9.3473992 73.8720021,9.2676 73.4616,9.2676 Z M88.0308,6.4632 C88.6844033,6.4632 89.2771973,6.5733989 89.8092,6.7938 C90.3412027,7.0142011 90.7895982,7.32199802 91.1544,7.7172 C91.5192018,8.11240198 91.800399,8.58739723 91.998,9.1422 C92.195601,9.69700277 92.2944,10.3163966 92.2944,11.0004 L92.2944,18 L89.2392,18 L89.2392,11.4108 C89.2392,10.7571967 89.0492019,10.229002 88.6692,9.8262 C88.2891981,9.42339799 87.7800032,9.222 87.1416,9.222 C86.5031968,9.222 85.986402,9.42339799 85.5912,9.8262 C85.195998,10.229002 84.9984,10.7571967 84.9984,11.4108 L84.9984,18 L81.9204,18 L81.9204,6.714 L84.7476,6.714 L84.7476,7.7628 C85.142802,7.36759802 85.6139973,7.05220118 86.1612,6.8166 C86.7084027,6.58099882 87.3315965,6.4632 88.0308,6.4632 Z"/>
    <polygon fill="#009394" points="95.213 18 95.213 13.759 99.454 13.759 99.454 18"/>
    <path fill="#173132" d="M106.9996,6.6456 C107.653203,6.6456 108.234597,6.75199894 108.7438,6.9648 C109.253003,7.17760106 109.686198,7.47779806 110.0434,7.8654 C110.400602,8.25300194 110.670399,8.7165973 110.8528,9.2562 C111.035201,9.7958027 111.1264,10.3847968 111.1264,11.0232 L111.1264,18 L109.3708,18 L109.3708,11.2284 C109.3708,10.3467956 109.127602,9.63240274 108.6412,9.0852 C108.154798,8.53799726 107.478404,8.2644 106.612,8.2644 C106.186398,8.2644 105.795002,8.33659928 105.4378,8.481 C105.080598,8.62540072 104.772801,8.83059867 104.5144,9.0966 C104.255999,9.36260133 104.054601,9.67799818 103.9102,10.0428 C103.765799,10.4076018 103.6936,10.8027979 103.6936,11.2284 L103.6936,18 L101.938,18 L101.938,6.8964 L103.5796,6.8964 L103.5796,8.1276 C103.974802,7.67159772 104.461197,7.31060133 105.0388,7.0446 C105.616403,6.77859867 106.269996,6.6456 106.9996,6.6456 Z M119.222,6.6456 C119.921203,6.6456 120.578597,6.76719878 121.1942,7.0104 C121.809803,7.25360122 122.345598,7.5955978 122.8016,8.0364 C123.257602,8.4772022 123.614799,9.00539692 123.8732,9.621 C124.131601,10.2366031 124.2608,10.9167963 124.2608,11.6616 C124.2608,11.9656015 124.2456,12.2353988 124.2152,12.471 C124.1848,12.7066012 124.1544,12.8775995 124.124,12.984 L115.3688,12.984 C115.4296,13.5464028 115.570199,14.0517978 115.7906,14.5002 C116.011001,14.9486022 116.299798,15.3323984 116.657,15.6516 C117.014202,15.9708016 117.428398,16.2139992 117.8996,16.3812 C118.370802,16.5484008 118.879997,16.632 119.4272,16.632 C120.141604,16.632 120.772397,16.4952014 121.3196,16.2216 C121.866803,15.9479986 122.368398,15.5832023 122.8244,15.1272 L123.8504,16.3128 C123.303197,16.905603 122.653404,17.3767983 121.901,17.7264 C121.148596,18.0760017 120.316405,18.2508 119.4044,18.2508 C118.568396,18.2508 117.793204,18.1026015 117.0788,17.8062 C116.364396,17.5097985 115.745003,17.0994026 115.2206,16.575 C114.696197,16.0505974 114.285801,15.4388035 113.9894,14.7396 C113.692999,14.0403965 113.5448,13.2804041 113.5448,12.4596 C113.5448,11.653996 113.689199,10.8978035 113.978,10.191 C114.266801,9.48419647 114.669597,8.86860262 115.1864,8.3442 C115.703203,7.81979738 116.303597,7.40560152 116.9876,7.1016 C117.671603,6.79759848 118.416396,6.6456 119.222,6.6456 Z M119.1764,8.2416 C118.705198,8.2416 118.260602,8.31759924 117.8426,8.4696 C117.424598,8.62160076 117.052202,8.83819859 116.7254,9.1194 C116.398598,9.40060141 116.125001,9.73879802 115.9046,10.134 C115.684199,10.529202 115.5284,10.9623976 115.4372,11.4336 L122.4596,11.4336 C122.4596,10.9167974 122.368401,10.460802 122.186,10.0656 C122.003599,9.67039802 121.764201,9.33600137 121.4678,9.0624 C121.171399,8.78879863 120.825602,8.58360068 120.4304,8.4468 C120.035198,8.30999932 119.617202,8.2416 119.1764,8.2416 Z M132.5616,8.4696 L129.096,8.4696 L129.096,14.5344 C129.096,14.9448021 129.152999,15.2867986 129.267,15.5604 C129.381001,15.8340014 129.540599,16.0505992 129.7458,16.2102 C129.951001,16.3698008 130.194199,16.4837997 130.4754,16.5522 C130.756601,16.6206003 131.071998,16.6548 131.4216,16.6548 C131.649601,16.6548 131.881399,16.6434001 132.117,16.6206 C132.352601,16.5977999 132.614799,16.5636002 132.9036,16.518 L132.9036,18 C132.614799,18.0760004 132.326001,18.1367998 132.0372,18.1824 C131.748399,18.2280002 131.429202,18.2508 131.0796,18.2508 C129.985195,18.2508 129.088403,17.9658029 128.3892,17.3958 C127.689997,16.8257972 127.3404,15.9100063 127.3404,14.6484 L127.3404,8.4696 L125.4708,8.4696 L125.4708,6.8964 L127.3404,6.8964 L127.3404,3.864 L129.096,3.864 L129.096,6.8964 L132.5616,6.8964 L132.5616,8.4696 Z M146.8588,15.036 L150.028,6.8964 L151.8976,6.8964 L147.2236,18.2508 L146.5624,18.2508 L142.8004,9.8604 L139.0384,18.2508 L138.4,18.2508 L133.7032,6.8964 L135.5728,6.8964 L138.742,15.1272 L142.4812,6.6456 L143.1196,6.6456 L146.8588,15.036 Z M158.5112,6.6456 C159.301604,6.6456 160.050196,6.79379852 160.757,7.0902 C161.463804,7.38660148 162.079397,7.79699738 162.6038,8.3214 C163.128203,8.84580262 163.542398,9.4575965 163.8464,10.1568 C164.150402,10.8560035 164.3024,11.6159959 164.3024,12.4368 C164.3024,13.242404 164.150402,13.9985965 163.8464,14.7054 C163.542398,15.4122035 163.128203,16.0277974 162.6038,16.5522 C162.079397,17.0766026 161.463804,17.4869985 160.757,17.7834 C160.050196,18.0798015 159.294004,18.228 158.4884,18.228 C157.682796,18.228 156.930403,18.0760015 156.2312,17.772 C155.531997,17.4679985 154.920203,17.0576026 154.3958,16.5408 C153.871397,16.0239974 153.457202,15.4160035 153.1532,14.7168 C152.849198,14.0175965 152.6972,13.2576041 152.6972,12.4368 C152.6972,11.6159959 152.845399,10.8560035 153.1418,10.1568 C153.438201,9.4575965 153.848597,8.84580262 154.373,8.3214 C154.897403,7.79699738 155.512996,7.38660148 156.2198,7.0902 C156.926604,6.79379852 157.690396,6.6456 158.5112,6.6456 Z M158.5112,8.2644 C157.933597,8.2644 157.397802,8.37079894 156.9038,8.5836 C156.409798,8.79640106 155.984202,9.0927981 155.627,9.4728 C155.269798,9.8528019 154.992401,10.2973975 154.7948,10.8066 C154.597199,11.3158025 154.4984,11.866797 154.4984,12.4596 C154.4984,13.052403 154.597199,13.5995975 154.7948,14.1012 C154.992401,14.6028025 155.269798,15.0397981 155.627,15.4122 C155.984202,15.7846019 156.405998,16.0771989 156.8924,16.29 C157.378802,16.5028011 157.910797,16.6092 158.4884,16.6092 C159.066003,16.6092 159.597998,16.5028011 160.0844,16.29 C160.570802,16.0771989 160.992598,15.7846019 161.3498,15.4122 C161.707002,15.0397981 161.988199,14.5990025 162.1934,14.0898 C162.398601,13.5805975 162.5012,13.0372029 162.5012,12.4596 C162.5012,11.866797 162.398601,11.3120026 162.1934,10.7952 C161.988199,10.2783974 161.710802,9.83380186 161.3612,9.4614 C161.011598,9.08899814 160.589802,8.79640106 160.0958,8.5836 C159.601798,8.37079894 159.073603,8.2644 158.5112,8.2644 Z M172.0104,6.8052 C172.192801,6.8052 172.344799,6.81279992 172.4664,6.828 C172.588001,6.84320008 172.701999,6.86599985 172.8084,6.8964 L172.8084,8.4468 L172.17,8.4468 C171.713998,8.4468 171.277002,8.51899928 170.859,8.6634 C170.440998,8.80780072 170.068602,9.01679863 169.7418,9.2904 C169.414998,9.56400137 169.152801,9.90219799 168.9552,10.305 C168.757599,10.707802 168.6588,11.1751973 168.6588,11.7072 L168.6588,18 L166.9032,18 L166.9032,6.8964 L168.5448,6.8964 L168.5448,8.4924 C168.955202,7.94519726 169.464397,7.52720144 170.0724,7.2384 C170.680403,6.94959856 171.326397,6.8052 172.0104,6.8052 Z M176.4124,18 L174.6568,18 L174.6568,0.9 L176.4124,0.9 L176.4124,18 Z M178.7152,11.7756 L183.9592,18 L181.702,18 L176.5948,11.7528 L181.2232,6.8964 L183.526,6.8964 L178.7152,11.7756 Z"/>
  </g>
</svg>
